<?xml version="1.0" encoding="UTF-8"?>
<svg version="1.1" xmlns="http://www.w3.org/2000/svg" width="360" height="360">
<path d="M0 0 C118.8 0 237.6 0 360 0 C360 118.8 360 237.6 360 360 C241.2 360 122.4 360 0 360 C0 241.2 0 122.4 0 0 Z " fill="#EFEEEF" transform="translate(0,0)"/>
<path d="M0 0 C3.30524238 2.50840658 6.558203 5.07183749 9.80078125 7.66015625 C10.77265381 8.42682617 10.77265381 8.42682617 11.76416016 9.20898438 C19.4560211 15.28064094 26.82354672 21.3929315 33.6328125 28.453125 C35.67478519 30.53188999 37.77887164 32.44966818 39.98828125 34.34765625 C62.36215011 53.57660379 81.99890636 80.76899112 85.12109375 110.734375 C86.22797932 139.55029591 72.15625305 164.88395107 54.80078125 186.66015625 C53.93066406 187.75457031 53.93066406 187.75457031 53.04296875 188.87109375 C46.93693542 196.51024367 40.80469717 203.981077 33.73828125 210.76171875 C31.83200857 212.62955851 30.09559601 214.56860239 28.36328125 216.59765625 C21.80575178 224.21774836 14.56170111 231.27200855 6.80078125 237.66015625 C5.40279297 238.81644531 5.40279297 238.81644531 3.9765625 239.99609375 C-8.16597932 249.80822947 -21.21206225 257.15644003 -36.19921875 261.66015625 C-37.359375 262.02753906 -37.359375 262.02753906 -38.54296875 262.40234375 C-60.77949793 268.45930879 -85.82496055 259.11045695 -105.19921875 248.66015625 C-114.94088523 242.7750305 -123.63141497 235.4072362 -132.37451172 228.16015625 C-133.96873042 226.84962913 -135.58424909 225.56509975 -137.203125 224.28515625 C-143.20580542 219.53194206 -148.63032272 214.3942932 -153.96166992 208.91210938 C-156.78841669 205.90860661 -156.78841669 205.90860661 -160.19921875 203.66015625 C-160.19921875 203.00015625 -160.19921875 202.34015625 -160.19921875 201.66015625 C-160.85921875 201.66015625 -161.51921875 201.66015625 -162.19921875 201.66015625 C-162.19921875 201.00015625 -162.19921875 200.34015625 -162.19921875 199.66015625 C-162.85921875 199.66015625 -163.51921875 199.66015625 -164.19921875 199.66015625 C-164.19921875 199.00015625 -164.19921875 198.34015625 -164.19921875 197.66015625 C-164.85921875 197.66015625 -165.51921875 197.66015625 -166.19921875 197.66015625 C-167.64453125 196.2265625 -167.64453125 196.2265625 -169.32421875 194.22265625 C-171.89530363 191.18749589 -174.51208352 188.21800229 -177.19921875 185.28515625 C-191.55077747 169.05685524 -202.66326594 148.07444778 -202.51171875 126.03515625 C-202.5060791 125.16342773 -202.50043945 124.29169922 -202.49462891 123.39355469 C-202.00058163 96.71500172 -189.39383552 74.03011979 -173.19921875 53.66015625 C-172.3896875 52.63664062 -171.58015625 51.613125 -170.74609375 50.55859375 C-166.47004578 45.25091182 -162.01177326 40.13196257 -157.41796875 35.09765625 C-156.00761332 33.54825169 -154.61015093 31.98693589 -153.23046875 30.41015625 C-138.18077763 13.27666174 -122.11550327 -2.05477593 -102.19921875 -13.33984375 C-101.23628906 -13.89542969 -100.27335937 -14.45101562 -99.28125 -15.0234375 C-65.97801013 -33.04583856 -28.64922228 -20.9534605 0 0 Z " fill="#737FFA" transform="translate(237.19921875,58.33984375)"/>
<path d="M0 0 C4.95 0 9.9 0 15 0 C15.75219655 7.84433547 14.44843734 12.96582092 10.92724609 19.85400391 C6.89984772 27.87029006 4.52220846 36.41710013 2 45 C1.34 45 0.68 45 0 45 C-1.00734133 84.30180928 12.63573619 112.87283027 39.10546875 141.2578125 C41.66411732 143.86729514 44.3075253 146.29844892 47.125 148.625 C50.7045643 151.58203138 53.87815323 154.8385341 57.1015625 158.17578125 C61.97606433 163.23070881 61.97606433 163.23070881 67.5625 167.4375 C68.366875 167.953125 69.17125 168.46875 70 169 C70 169.66 70 170.32 70 171 C71.65 171.66 73.3 172.32 75 173 C75 173.66 75 174.32 75 175 C75.86564575 175.4029126 75.86564575 175.4029126 76.7487793 175.81396484 C79.04736096 177.02495169 80.96518762 178.38910408 83.01953125 179.9765625 C105.8875412 197.40747363 135.14093534 212.66424627 165 209 C193.94780969 203.27308542 216.76167555 186.81233921 237.01953125 165.984375 C239.58587938 163.41296504 242.31532292 161.06784993 245.07421875 158.70703125 C247.72772671 156.35493596 250.19118099 153.8360197 252.65234375 151.28515625 C254 150 254 150 255 150 C255 154.95 255 159.9 255 165 C259.95 165 264.9 165 270 165 C270 169.95 270 174.9 270 180 C274.95 180 279.9 180 285 180 C285 184.95 285 189.9 285 195 C289.95 195 294.9 195 300 195 C300 199.95 300 204.9 300 210 C304.95 210 309.9 210 315 210 C315 214.95 315 219.9 315 225 C319.95 225 324.9 225 330 225 C330 229.95 330 234.9 330 240 C211.2 240 92.4 240 -30 240 C-30 170.7 -30 101.4 -30 30 C-25.05 30 -20.1 30 -15 30 C-15 25.05 -15 20.1 -15 15 C-10.05 15 -5.1 15 0 15 C0 10.05 0 5.1 0 0 Z " fill="#F3F2F3" transform="translate(30,120)"/>
<path d="M0 0 C59.4 0 118.8 0 180 0 C180 69.3 180 138.6 180 210 C175.05 210 170.1 210 165 210 C165 205.05 165 200.1 165 195 C160.15350804 195.03950724 160.15350804 195.03950724 155.30712891 195.09008789 C150.22222222 195.11111111 150.22222222 195.11111111 148 194 C147.87434107 187.46573586 147.87434107 187.46573586 148.4921875 185.17578125 C153.13420146 165.28653682 143.25301332 143.21980891 133.07080078 126.66650391 C130.90321515 123.29305668 128.46434435 120.15941583 126 117 C126 116.34 126 115.68 126 115 C125.34 115 124.68 115 124 115 C122.4140625 113.20703125 122.4140625 113.20703125 120.625 110.8125 C119.99851562 109.9875 119.37203125 109.1625 118.7265625 108.3125 C117.48297363 106.64687871 116.24097956 104.98006628 115 103.3125 C112.69340213 100.64549621 110.14405671 98.52436448 107.390625 96.33203125 C106.93171875 95.89246094 106.4728125 95.45289062 106 95 C106 94.34 106 93.68 106 93 C105.34 93 104.68 93 104 93 C104 92.34 104 91.68 104 91 C103.43152344 90.76023437 102.86304688 90.52046875 102.27734375 90.2734375 C99.53779977 88.74154841 97.73254305 86.88906571 95.5625 84.625 C92.51148299 81.49908077 89.45055447 78.68376459 86 76 C85.278125 75.2575 84.55625 74.515 83.8125 73.75 C79.7981118 69.82482042 75.42250906 66.45266058 71 63 C69.71088023 61.97012377 68.4218218 60.94017075 67.1328125 59.91015625 C43.47012142 41.17615646 15.70493834 28.95324074 -15 30 C-15 25.05 -15 20.1 -15 15 C-10.05 15 -5.1 15 0 15 C0 10.05 0 5.1 0 0 Z " fill="#F9F8F9" transform="translate(180,0)"/>
<path d="M0 0 C1.41891218 1.15148376 2.83820312 2.3025009 4.2578125 3.453125 C6.4122304 5.20059729 8.56447576 6.95033836 10.70898438 8.70996094 C11.35416016 9.23879883 11.99933594 9.76763672 12.6640625 10.3125 C13.23592285 10.78300781 13.8077832 11.25351563 14.39697266 11.73828125 C15.87466321 12.9013493 17.43532579 13.95688386 19 15 C19 15.66 19 16.32 19 17 C19.99 17.33 20.98 17.66 22 18 C22 18.66 22 19.32 22 20 C22.56460938 20.23589844 23.12921875 20.47179687 23.7109375 20.71484375 C26.52071963 22.29234942 28.39619051 24.24051286 30.625 26.5625 C33.51070681 29.69042054 33.51070681 29.69042054 37 32 C37 32.66 37 33.32 37 34 C37.66 34 38.32 34 39 34 C40.23831507 35.43912292 41.47023409 36.88466761 42.65625 38.3671875 C44.09714456 40.17165188 44.09714456 40.17165188 46.3125 42.3125 C48.71782441 44.71782441 51.02716847 47.16880716 53.3125 49.6875 C54.00988281 50.45449219 54.70726562 51.22148438 55.42578125 52.01171875 C57 54 57 54 57 56 C57.66 56 58.32 56 59 56 C60.64857989 58.13273533 62.14921661 60.25069873 63.625 62.5 C64.0686792 63.17490479 64.5123584 63.84980957 64.96948242 64.54516602 C77.40498035 83.84792871 85.81427733 105.2506842 82.4375 128.625 C81.77409194 132.13121134 81.77409194 132.13121134 83 136 C87.95 136 92.9 136 98 136 C98 140.95 98 145.9 98 151 C102.95 151 107.9 151 113 151 C113 195.55 113 240.1 113 286 C108.05 286 103.1 286 98 286 C98 281.05 98 276.1 98 271 C93.05 271 88.1 271 83 271 C83 266.05 83 261.1 83 256 C78.05 256 73.1 256 68 256 C68 251.05 68 246.1 68 241 C63.05 241 58.1 241 53 241 C53 236.05 53 231.1 53 226 C48.05 226 43.1 226 38 226 C37.67 221.38 37.34 216.76 37 212 C36.154375 212.85722656 35.30875 213.71445312 34.4375 214.59765625 C29.01733712 220.06902823 23.62354007 225.48330696 17.74609375 230.46875 C15.966369 232.02949295 14.3316798 233.67279032 12.6875 235.375 C-3.01538964 251.25512316 -22.40598737 263.29365452 -44 269 C-44.68964844 269.22429687 -45.37929687 269.44859375 -46.08984375 269.6796875 C-66.19399472 275.8851971 -93.4429728 266.78319872 -111.4375 257.5 C-120.22535694 252.75282708 -128.1267613 246.55246109 -136.03979492 240.4987793 C-137.4191911 239.44408841 -138.82611401 238.42491858 -140.2512207 237.43286133 C-140.82831787 236.96001709 -141.40541504 236.48717285 -142 236 C-142 235.34 -142 234.68 -142 234 C-143.65 233.34 -145.3 232.68 -147 232 C-147 231.34 -147 230.68 -147 230 C-147.58265625 229.73574219 -148.1653125 229.47148437 -148.765625 229.19921875 C-151.08910711 227.95217503 -152.79587105 226.57686849 -154.75 224.8125 C-156.91403176 222.8681256 -159.07671271 220.93502903 -161.296875 219.0546875 C-162.02390625 218.43851563 -162.7509375 217.82234375 -163.5 217.1875 C-164.1703125 216.62417969 -164.840625 216.06085938 -165.53125 215.48046875 C-167 214 -167 214 -167 212 C-168.32 211.34 -169.64 210.68 -171 210 C-171 209.34 -171 208.68 -171 208 C-171.57363281 207.75121094 -172.14726562 207.50242187 -172.73828125 207.24609375 C-191.62031328 196.84303983 -207.61805898 167.97086487 -214 148 C-218.05575647 133.89818566 -218.20723244 120.46821652 -217 106 C-216.34 106 -215.68 106 -215 106 C-214.88785156 105.195625 -214.88785156 105.195625 -214.7734375 104.375 C-213.11609871 94.49596093 -209.60980723 84.43225826 -204.6875 75.6875 C-202.20996833 71.11280458 -202.1878115 66.10847278 -202 61 C-200.4840625 61.0309375 -200.4840625 61.0309375 -198.9375 61.0625 C-195.06022029 60.5334211 -193.5265868 58.74825432 -191.125 55.75 C-188.70476235 52.51578108 -187.55441009 50.00881139 -187 46 C-185.68 46 -184.36 46 -183 46 C-182.731875 45.42765625 -182.46375 44.8553125 -182.1875 44.265625 C-180.95867364 41.92115366 -179.57477824 39.87595062 -178 37.75 C-177.484375 37.04359375 -176.96875 36.3371875 -176.4375 35.609375 C-175.963125 35.07828125 -175.48875 34.5471875 -175 34 C-174.34 34 -173.68 34 -173 34 C-172.66742188 33.17435547 -172.66742188 33.17435547 -172.328125 32.33203125 C-170.57273076 29.24976548 -168.29929379 27.14972775 -165.75 24.6875 C-162.49059952 21.51427919 -159.33020961 18.32969034 -156.4375 14.8125 C-155.633125 13.884375 -154.82875 12.95625 -154 12 C-153.34 12 -152.68 12 -152 12 C-151.67 11.01 -151.34 10.02 -151 9 C-150.34 9 -149.68 9 -149 9 C-149 8.34 -149 7.68 -149 7 C-147.70703125 5.625 -147.70703125 5.625 -145.8125 4 C-145.09578125 3.38511719 -144.3790625 2.77023438 -143.640625 2.13671875 C-141.65432547 0.52946158 -139.65801663 -1.01904888 -137.609375 -2.54296875 C-136.73188599 -3.19942383 -136.73188599 -3.19942383 -135.83666992 -3.86914062 C-134.6669744 -4.73832404 -133.49013171 -5.59798233 -132.3059082 -6.44726562 C-129.14486634 -8.7919043 -127.69568201 -10.13481723 -127 -14 C-125.83984375 -14.25007813 -124.6796875 -14.50015625 -123.484375 -14.7578125 C-119.03123563 -15.87207648 -115.27555639 -17.7129237 -111.25 -19.875 C-73.20956899 -39.47319004 -31.48426769 -25.78046961 0 0 Z M-135 2 C-135.97582031 2.84949219 -136.95164062 3.69898437 -137.95703125 4.57421875 C-143.92761757 9.92137035 -149.62952787 15.5379263 -155.3125 21.1875 C-156.29935791 22.16722778 -156.29935791 22.16722778 -157.30615234 23.16674805 C-161.73900499 27.61472415 -165.91304588 32.23384926 -170 37 C-170.88926099 38.02088728 -171.77857892 39.04172496 -172.66796875 40.0625 C-196.27158797 67.58175838 -214.58097717 97.35027281 -212 135 C-209.27273344 156.51510288 -195.88213165 175.2101351 -181.34765625 190.4765625 C-179 193 -179 193 -177.30859375 195.3359375 C-176.87675781 195.88507813 -176.44492188 196.43421875 -176 197 C-175.34 197 -174.68 197 -174 197 C-174 197.66 -174 198.32 -174 199 C-173.34 199 -172.68 199 -172 199 C-172 199.66 -172 200.32 -172 201 C-171.34 201 -170.68 201 -170 201 C-170 201.66 -170 202.32 -170 203 C-168.51638306 204.50049936 -168.51638306 204.50049936 -166.5625 206.0625 C-163.44304054 208.70583144 -160.53455407 211.44058145 -157.6875 214.375 C-152.77409067 219.33863157 -147.45710501 223.65234455 -142 228 C-140.8177491 228.97112274 -139.63682057 229.94385698 -138.45703125 230.91796875 C-114.8679068 250.29033641 -86.62267393 265.82166821 -55 263 C-23.29566449 257.32112721 3.89912833 234.2398384 24.3125 210.25 C27.1262497 206.98201267 30.01579321 203.79688352 32.9375 200.625 C55.82172824 175.46613461 75.57886059 145.80043755 75.21484375 110.53125 C72.95588601 73.40219913 42.89622895 44.3679945 17 21 C16.21882812 20.29230469 15.43765625 19.58460937 14.6328125 18.85546875 C9.5866352 14.36660019 4.3266226 10.14997449 -1 6 C-1.58845703 5.53899902 -2.17691406 5.07799805 -2.78320312 4.60302734 C-44.92746397 -28.26992485 -92.65591442 -35.35608441 -135 2 Z " fill="#F2F1F2" transform="translate(247,59)"/>
<path d="M0 0 C5.0436772 3.08996302 10.19663851 5.99287109 15.32958984 8.93115234 C17.55540865 10.21534126 19.78066806 11.50050021 22.00537109 12.78662109 C25.2984201 14.6899253 28.59285477 16.59045992 31.89355469 18.48046875 C34.94011259 20.22572128 37.97923271 21.98331057 41.01708984 23.74365234 C41.93192139 24.26354736 42.84675293 24.78344238 43.78930664 25.3190918 C49.32415969 28.54639446 53.53019957 31.28298152 55.64208984 37.61865234 C55.74795666 40.03003246 55.799309 42.4129431 55.80322266 44.82470703 C55.80818756 45.55517242 55.81315247 46.28563782 55.81826782 47.03823853 C55.83287595 49.45567772 55.83969 51.87305125 55.84521484 54.29052734 C55.85096843 55.97340903 55.85672614 57.6562907 55.86248779 59.33917236 C55.87299465 62.86983546 55.87883904 66.40047581 55.88232422 69.93115234 C55.88780119 74.44478765 55.91181337 78.95812011 55.94029617 83.47166061 C55.9589668 86.94961408 55.96413055 90.42749535 55.9656601 93.90549469 C55.96867835 95.56879579 55.97667886 97.23209587 55.98984528 98.8953476 C56.00699497 101.22880216 56.00500389 103.56152666 55.99853516 105.89501953 C56.00774994 106.57579559 56.01696472 107.25657166 56.02645874 107.95797729 C55.97616732 113.78041408 54.53149903 118.34804656 50.77734375 122.85961914 C48.44623661 124.77999725 46.10571386 126.27300442 43.47802734 127.76318359 C42.45080566 128.35035156 41.42358398 128.93751953 40.36523438 129.54248047 C39.26034668 130.16574219 38.15545898 130.78900391 37.01708984 131.43115234 C35.26830243 132.42849036 33.51952069 133.42583848 31.77108765 134.42379761 C29.95118048 135.46153729 28.12974418 136.4965534 26.30810547 137.53125 C20.44472107 140.86526645 14.60746566 144.24454479 8.76708984 147.61865234 C7.72987793 148.21653564 6.69266602 148.81441895 5.62402344 149.43041992 C4.62193848 150.00816162 3.61985352 150.58590332 2.58740234 151.18115234 C1.60545898 151.74060547 0.62351562 152.30005859 -0.38818359 152.87646484 C-2.43010388 154.0743556 -4.44307807 155.32254504 -6.42919922 156.61083984 C-11.94194201 160.11367354 -16.31626936 162.68364988 -22.97753906 162.15527344 C-27.28472455 161.18427921 -30.80408649 159.2187787 -34.54541016 156.93115234 C-35.30015625 156.49609375 -36.05490234 156.06103516 -36.83251953 155.61279297 C-41.53643712 152.86375022 -45.96945693 149.84460141 -50.35791016 146.61865234 C-47.2779107 142.94634529 -45.10964996 142.05062869 -40.35791016 141.61865234 C-40.35791016 140.95865234 -40.35791016 140.29865234 -40.35791016 139.61865234 C-35.92267586 140.89979773 -32.71192225 142.61054683 -28.98291016 145.30615234 C-24.46077493 148.31765831 -24.46077493 148.31765831 -19.23291016 148.93115234 C-15.09028355 147.95090119 -11.80390968 145.51350091 -8.43603516 142.99365234 C-6.36624749 141.62416878 -4.781125 141.05526763 -2.35791016 140.61865234 C-2.35791016 139.95865234 -2.35791016 139.29865234 -2.35791016 138.61865234 C1.10708984 137.62865234 1.10708984 137.62865234 4.64208984 136.61865234 C4.64208984 135.95865234 4.64208984 135.29865234 4.64208984 134.61865234 C6.26458925 133.78046077 7.89017481 132.94824075 9.51708984 132.11865234 C10.42201172 131.65458984 11.32693359 131.19052734 12.25927734 130.71240234 C14.64208984 129.61865234 14.64208984 129.61865234 16.64208984 129.61865234 C16.64208984 128.95865234 16.64208984 128.29865234 16.64208984 127.61865234 C17.40521484 127.24740234 18.16833984 126.87615234 18.95458984 126.49365234 C23.13378864 124.41908603 27.18400691 122.1094612 31.25146484 119.82568359 C33.64208984 118.61865234 33.64208984 118.61865234 35.64208984 118.61865234 C35.64208984 117.95865234 35.64208984 117.29865234 35.64208984 116.61865234 C36.61146484 116.14427734 37.58083984 115.66990234 38.57958984 115.18115234 C41.44686421 113.91671287 41.44686421 113.91671287 42.64208984 112.61865234 C42.74160894 110.49782651 42.77008661 108.37364732 42.77148438 106.25048828 C42.77323669 105.58537735 42.77498901 104.92026642 42.77679443 104.23500061 C42.78121462 102.02431671 42.77827307 99.81371214 42.77490234 97.60302734 C42.77557566 96.06943751 42.77654591 94.53584777 42.77780151 93.0022583 C42.77927897 89.78079212 42.77712359 86.5593536 42.77246094 83.33789062 C42.76678277 79.2142197 42.77003017 75.09061413 42.7760334 70.96694565 C42.77965411 67.7961783 42.77849315 64.62542633 42.77590561 61.45465851 C42.77523952 59.93485761 42.77605364 58.4150553 42.77838516 56.89525604 C42.7809343 54.76493156 42.77703843 52.63471129 42.77148438 50.50439453 C42.77068878 49.29273621 42.76989319 48.08107788 42.76907349 46.83270264 C42.65475891 43.93931583 42.4416532 41.39922079 41.64208984 38.61865234 C39.48612147 36.80635871 39.48612147 36.80635871 36.67333984 35.41943359 C35.63580566 34.85522705 34.59827148 34.29102051 33.52929688 33.7097168 C32.41151855 33.12279053 31.29374023 32.53586426 30.14208984 31.93115234 C27.83662369 30.68258906 25.53193736 29.43258477 23.22802734 28.18115234 C21.53178223 27.26849609 21.53178223 27.26849609 19.80126953 26.33740234 C15.73442144 24.12483584 11.74277954 21.80249722 7.76708984 19.43115234 C7.11264893 19.04507813 6.45820801 18.65900391 5.78393555 18.26123047 C2.89662925 16.55768787 0.01584825 14.84447233 -2.85351562 13.11083984 C-5.45307256 11.54056628 -8.06125038 9.98540311 -10.67041016 8.43115234 C-11.47784668 7.93655518 -12.2852832 7.44195801 -13.1171875 6.93237305 C-13.87338379 6.48466553 -14.62958008 6.03695801 -15.40869141 5.57568359 C-16.07553955 5.17325439 -16.7423877 4.7708252 -17.42944336 4.35620117 C-19.91000341 3.40750236 -20.89167784 3.67702649 -23.35791016 4.61865234 C-25.0538403 5.46119743 -26.72364312 6.35714945 -28.37353516 7.28662109 C-29.36587158 7.84341553 -30.35820801 8.40020996 -31.38061523 8.97387695 C-32.44562256 9.57852783 -33.51062988 10.18317871 -34.60791016 10.80615234 C-35.71094482 11.42820557 -36.81397949 12.05025879 -37.95043945 12.69116211 C-53.76526488 21.62982105 -53.76526488 21.62982105 -69.36885071 30.92802429 C-72.35791016 32.61865234 -72.35791016 32.61865234 -75.47532654 33.87454224 C-79.02498609 35.44826526 -81.55744382 36.91156758 -84.35791016 39.61865234 C-86.11318836 45.23263765 -85.90077226 50.6569387 -85.74853516 56.48974609 C-85.74859154 58.13884814 -85.75394105 59.78795774 -85.76434326 61.43702698 C-85.77748694 65.76051008 -85.71910349 70.08013369 -85.64544678 74.40289307 C-85.58295015 78.82043914 -85.58859121 83.23785127 -85.58837891 87.65576172 C-85.57797953 96.3113666 -85.49196574 104.96408329 -85.35791016 113.61865234 C-84.59365723 113.90998047 -83.8294043 114.20130859 -83.04199219 114.50146484 C-79.80908242 115.84708928 -77.14318798 117.67370009 -74.23291016 119.61865234 C-68.4760627 123.33777303 -63.18744508 125.07119463 -56.35791016 125.61865234 C-55.89384766 124.69052734 -55.89384766 124.69052734 -55.42041016 123.74365234 C-54.73291016 122.36865234 -54.04541016 120.99365234 -53.35791016 119.61865234 C-53.24178661 117.28597022 -53.19084083 114.94996541 -53.16845703 112.61450195 C-53.16016373 111.89405197 -53.15187042 111.17360199 -53.14332581 110.43132019 C-53.12591496 108.86532231 -53.11075097 107.29929822 -53.09754944 105.7332592 C-53.07655491 103.2585907 -53.04953103 100.78405434 -53.02087402 98.3094635 C-52.95097342 92.16448504 -52.89156619 86.01941293 -52.83184814 79.87432861 C-52.78100094 74.68186908 -52.72620671 69.48948111 -52.66603088 64.29712105 C-52.63936716 61.85247521 -52.61860831 59.40782302 -52.59802246 56.96311951 C-52.58142694 55.47321247 -52.56455576 53.98330847 -52.54736328 52.4934082 C-52.52857117 50.53388466 -52.52857117 50.53388466 -52.50939941 48.53477478 C-52.35791016 45.61865234 -52.35791016 45.61865234 -51.35791016 44.61865234 C-49.50503514 44.54638733 -47.64957138 44.53484015 -45.79541016 44.55615234 C-44.78349609 44.56517578 -43.77158203 44.57419922 -42.72900391 44.58349609 C-41.5553125 44.60089844 -41.5553125 44.60089844 -40.35791016 44.61865234 C-40.2883425 54.94568914 -40.23506448 65.27267001 -40.20247364 75.59989357 C-40.18683019 80.39545607 -40.16561599 85.19085802 -40.1315918 89.98632812 C-40.09895131 94.61584421 -40.08104721 99.24520605 -40.07327843 103.87482834 C-40.06774334 105.63944298 -40.05693462 107.40404935 -40.04071999 109.16859818 C-40.01888321 111.64383312 -40.01594581 114.11843394 -40.01733398 116.59375 C-40.00654816 117.32023743 -39.99576233 118.04672485 -39.98464966 118.79522705 C-40.01806186 124.31570622 -41.33420058 128.33118915 -45.00634766 132.48193359 C-50.87158549 137.40501784 -50.87158549 137.40501784 -55.35791016 137.61865234 C-56.00373047 137.67923828 -56.64955078 137.73982422 -57.31494141 137.80224609 C-67.16355872 138.37143063 -74.88505119 133.47738703 -83.17041016 128.74365234 C-84.26482422 128.12804443 -84.26482422 128.12804443 -85.38134766 127.5 C-86.08130859 127.0879834 -86.78126953 126.6759668 -87.50244141 126.25146484 C-88.43600464 125.7083667 -88.43600464 125.7083667 -89.38842773 125.15429688 C-93.69741043 121.79449755 -96.09767921 119.20743616 -96.97937012 113.82446289 C-97.00277009 112.38495431 -96.99909308 110.94483599 -96.97314453 109.50537109 C-96.97869354 108.7143399 -96.98424255 107.92330872 -96.98995972 107.10830688 C-97.0017208 104.50696235 -96.97751838 101.90737368 -96.95166016 99.30615234 C-96.94994801 97.49064208 -96.95001579 95.67512935 -96.95178223 93.85961914 C-96.950131 90.0599798 -96.93146946 86.26093189 -96.89990234 82.46142578 C-96.86022538 77.59906447 -96.85585837 72.73747723 -96.86336517 67.87498474 C-96.86643954 64.12765453 -96.85429774 60.38049726 -96.8372345 56.63320923 C-96.83021969 54.84071946 -96.82707812 53.04821009 -96.82792664 51.25570679 C-96.82612224 48.74742431 -96.80468642 46.2400571 -96.77783203 43.73193359 C-96.78076263 42.99617096 -96.78369324 42.26040833 -96.78671265 41.50234985 C-96.7096422 36.82006383 -95.84710291 33.58810087 -93.35791016 29.61865234 C-90.68603516 27.64208984 -90.68603516 27.64208984 -87.60791016 25.99365234 C-86.53025391 25.40326172 -85.45259766 24.81287109 -84.34228516 24.20458984 C-82.86501953 23.41955078 -82.86501953 23.41955078 -81.35791016 22.61865234 C-80.18803793 21.95762698 -79.0206604 21.29212649 -77.85791016 20.61865234 C-77.33455078 20.32087891 -76.81119141 20.02310547 -76.27197266 19.71630859 C-67.90729937 14.97218823 -67.90729937 14.97218823 -59.74072266 9.90380859 C-57.35791016 8.61865234 -57.35791016 8.61865234 -53.35791016 8.61865234 C-52.86291016 7.13365234 -52.86291016 7.13365234 -52.35791016 5.61865234 C-49.69775391 3.93505859 -49.69775391 3.93505859 -46.29541016 2.18115234 C-45.70775879 1.8740332 -45.12010742 1.56691406 -44.51464844 1.25048828 C-41.28044749 -0.43190024 -38.01396046 -2.04295134 -34.73291016 -3.63134766 C-31.4781549 -5.08393389 -31.4781549 -5.08393389 -29.89697266 -6.92822266 C-21.21038509 -15.12977234 -7.70418022 -4.80873244 0 0 Z " fill="#FCFCFE" transform="translate(200.35791015625,104.38134765625)"/>
<path d="M0 0 C1.41891218 1.15148376 2.83820312 2.3025009 4.2578125 3.453125 C6.4122304 5.20059729 8.56447576 6.95033836 10.70898438 8.70996094 C11.35416016 9.23879883 11.99933594 9.76763672 12.6640625 10.3125 C13.23592285 10.78300781 13.8077832 11.25351563 14.39697266 11.73828125 C15.87466321 12.9013493 17.43532579 13.95688386 19 15 C19 15.66 19 16.32 19 17 C19.99 17.33 20.98 17.66 22 18 C22 18.66 22 19.32 22 20 C22.56460938 20.23589844 23.12921875 20.47179687 23.7109375 20.71484375 C26.52071963 22.29234942 28.39619051 24.24051286 30.625 26.5625 C33.51070681 29.69042054 33.51070681 29.69042054 37 32 C37 32.66 37 33.32 37 34 C37.66 34 38.32 34 39 34 C40.23831507 35.43912292 41.47023409 36.88466761 42.65625 38.3671875 C44.09714456 40.17165188 44.09714456 40.17165188 46.3125 42.3125 C48.71782441 44.71782441 51.02716847 47.16880716 53.3125 49.6875 C54.00988281 50.45449219 54.70726562 51.22148438 55.42578125 52.01171875 C57 54 57 54 57 56 C57.66 56 58.32 56 59 56 C60.64857989 58.13273533 62.14921661 60.25069873 63.625 62.5 C64.0686792 63.17490479 64.5123584 63.84980957 64.96948242 64.54516602 C76.64978391 82.67568954 86.64001236 104.76473615 82.47119141 126.79443359 C80.89261543 133.92849326 78.99424092 140.9722432 77 148 C76.46632813 149.89298828 76.46632813 149.89298828 75.921875 151.82421875 C73.79363321 158.72296861 70.69444925 164.81269422 67 171 C66.51015625 171.84820312 66.0203125 172.69640625 65.515625 173.5703125 C60.62214594 181.6857357 54.60387614 188.84991418 48.55859375 196.11669922 C47.15946778 197.80730976 45.77789005 199.50972879 44.40625 201.22265625 C40.68753751 205.85194388 36.9189113 210.22992053 32.6484375 214.35546875 C30.99734869 216.00264502 29.50357873 217.71783942 28 219.5 C18.99480025 229.90465647 9.00865655 239.73955901 -2 248 C-2.99128906 248.74636719 -3.98257813 249.49273437 -5.00390625 250.26171875 C-17.020503 258.94610585 -29.63919012 265.2050711 -44 269 C-44.68964844 269.22429687 -45.37929687 269.44859375 -46.08984375 269.6796875 C-66.19399472 275.8851971 -93.4429728 266.78319872 -111.4375 257.5 C-120.22535694 252.75282708 -128.1267613 246.55246109 -136.03979492 240.4987793 C-137.4191911 239.44408841 -138.82611401 238.42491858 -140.2512207 237.43286133 C-140.82831787 236.96001709 -141.40541504 236.48717285 -142 236 C-142 235.34 -142 234.68 -142 234 C-143.65 233.34 -145.3 232.68 -147 232 C-147 231.34 -147 230.68 -147 230 C-147.58265625 229.73574219 -148.1653125 229.47148437 -148.765625 229.19921875 C-151.08910711 227.95217503 -152.79587105 226.57686849 -154.75 224.8125 C-156.91403176 222.8681256 -159.07671271 220.93502903 -161.296875 219.0546875 C-162.02390625 218.43851563 -162.7509375 217.82234375 -163.5 217.1875 C-164.1703125 216.62417969 -164.840625 216.06085938 -165.53125 215.48046875 C-167 214 -167 214 -167 212 C-168.32 211.34 -169.64 210.68 -171 210 C-171 209.34 -171 208.68 -171 208 C-171.57363281 207.75121094 -172.14726562 207.50242187 -172.73828125 207.24609375 C-191.62031328 196.84303983 -207.61805898 167.97086487 -214 148 C-218.05575647 133.89818566 -218.20723244 120.46821652 -217 106 C-216.34 106 -215.68 106 -215 106 C-214.88785156 105.195625 -214.88785156 105.195625 -214.7734375 104.375 C-213.11609871 94.49596093 -209.60980723 84.43225826 -204.6875 75.6875 C-202.20996833 71.11280458 -202.1878115 66.10847278 -202 61 C-200.4840625 61.0309375 -200.4840625 61.0309375 -198.9375 61.0625 C-195.06022029 60.5334211 -193.5265868 58.74825432 -191.125 55.75 C-188.70476235 52.51578108 -187.55441009 50.00881139 -187 46 C-185.68 46 -184.36 46 -183 46 C-182.731875 45.42765625 -182.46375 44.8553125 -182.1875 44.265625 C-180.95867364 41.92115366 -179.57477824 39.87595062 -178 37.75 C-177.484375 37.04359375 -176.96875 36.3371875 -176.4375 35.609375 C-175.963125 35.07828125 -175.48875 34.5471875 -175 34 C-174.34 34 -173.68 34 -173 34 C-172.66742188 33.17435547 -172.66742188 33.17435547 -172.328125 32.33203125 C-170.57273076 29.24976548 -168.29929379 27.14972775 -165.75 24.6875 C-162.49059952 21.51427919 -159.33020961 18.32969034 -156.4375 14.8125 C-155.633125 13.884375 -154.82875 12.95625 -154 12 C-153.34 12 -152.68 12 -152 12 C-151.67 11.01 -151.34 10.02 -151 9 C-150.34 9 -149.68 9 -149 9 C-149 8.34 -149 7.68 -149 7 C-147.70703125 5.625 -147.70703125 5.625 -145.8125 4 C-145.09578125 3.38511719 -144.3790625 2.77023438 -143.640625 2.13671875 C-141.65432547 0.52946158 -139.65801663 -1.01904888 -137.609375 -2.54296875 C-136.73188599 -3.19942383 -136.73188599 -3.19942383 -135.83666992 -3.86914062 C-134.6669744 -4.73832404 -133.49013171 -5.59798233 -132.3059082 -6.44726562 C-129.14486634 -8.7919043 -127.69568201 -10.13481723 -127 -14 C-125.83984375 -14.25007813 -124.6796875 -14.50015625 -123.484375 -14.7578125 C-119.03123563 -15.87207648 -115.27555639 -17.7129237 -111.25 -19.875 C-73.20956899 -39.47319004 -31.48426769 -25.78046961 0 0 Z M-135 2 C-135.97582031 2.84949219 -136.95164062 3.69898437 -137.95703125 4.57421875 C-143.92761757 9.92137035 -149.62952787 15.5379263 -155.3125 21.1875 C-156.29935791 22.16722778 -156.29935791 22.16722778 -157.30615234 23.16674805 C-161.73900499 27.61472415 -165.91304588 32.23384926 -170 37 C-170.88926099 38.02088728 -171.77857892 39.04172496 -172.66796875 40.0625 C-196.27158797 67.58175838 -214.58097717 97.35027281 -212 135 C-209.27273344 156.51510288 -195.88213165 175.2101351 -181.34765625 190.4765625 C-179 193 -179 193 -177.30859375 195.3359375 C-176.87675781 195.88507813 -176.44492188 196.43421875 -176 197 C-175.34 197 -174.68 197 -174 197 C-174 197.66 -174 198.32 -174 199 C-173.34 199 -172.68 199 -172 199 C-172 199.66 -172 200.32 -172 201 C-171.34 201 -170.68 201 -170 201 C-170 201.66 -170 202.32 -170 203 C-168.51638306 204.50049936 -168.51638306 204.50049936 -166.5625 206.0625 C-163.44304054 208.70583144 -160.53455407 211.44058145 -157.6875 214.375 C-152.77409067 219.33863157 -147.45710501 223.65234455 -142 228 C-140.8177491 228.97112274 -139.63682057 229.94385698 -138.45703125 230.91796875 C-114.8679068 250.29033641 -86.62267393 265.82166821 -55 263 C-23.29566449 257.32112721 3.89912833 234.2398384 24.3125 210.25 C27.1262497 206.98201267 30.01579321 203.79688352 32.9375 200.625 C55.82172824 175.46613461 75.57886059 145.80043755 75.21484375 110.53125 C72.95588601 73.40219913 42.89622895 44.3679945 17 21 C16.21882812 20.29230469 15.43765625 19.58460937 14.6328125 18.85546875 C9.5866352 14.36660019 4.3266226 10.14997449 -1 6 C-1.58845703 5.53899902 -2.17691406 5.07799805 -2.78320312 4.60302734 C-44.92746397 -28.26992485 -92.65591442 -35.35608441 -135 2 Z " fill="#E7DBDB" transform="translate(247,59)"/>
<path d="M0 0 C4.88383271 3.68974159 6.93136761 8.24179496 7.78515625 14.14453125 C7.86765625 15.36140625 7.95015625 16.57828125 8.03515625 17.83203125 C7.03515625 18.83203125 7.03515625 18.83203125 4.53125 18.9296875 C3.52191406 18.91808594 2.51257813 18.90648437 1.47265625 18.89453125 C0.46074219 18.88550781 -0.55117187 18.87648437 -1.59375 18.8671875 C-2.37621094 18.85558594 -3.15867188 18.84398437 -3.96484375 18.83203125 C-4.35671875 17.75953125 -4.74859375 16.68703125 -5.15234375 15.58203125 C-6.74434101 11.90704692 -8.47675231 9.9411098 -11.96484375 7.83203125 C-20.36093068 5.48893722 -29.04865009 6.35179121 -36.96484375 9.83203125 C-38.38061852 11.01627451 -38.38061852 11.01627451 -38.02734375 14.39453125 C-38.00671875 15.52890625 -37.98609375 16.66328125 -37.96484375 17.83203125 C-32.00659481 21.07581598 -25.40771133 21.78193035 -18.71484375 22.20703125 C-9.58812045 22.94703584 -0.25401654 25.10555841 7.03515625 30.83203125 C11.49362991 36.42161874 10.74729167 43.03073787 10.03515625 49.83203125 C7.29105187 55.8479524 2.5590058 59.63240586 -3.3671875 62.44921875 C-9.05448968 64.4915661 -14.80042454 64.30725134 -20.77734375 64.26953125 C-21.88916016 64.28951172 -23.00097656 64.30949219 -24.14648438 64.33007812 C-32.95387367 64.32492459 -40.50180297 62.71441176 -47.96484375 57.89453125 C-52.37415122 53.34743293 -53.87915345 49.35989508 -54.08984375 43.14453125 C-53.96484375 39.83203125 -53.96484375 39.83203125 -52.96484375 38.83203125 C-44.95179693 38.37846256 -44.95179693 38.37846256 -41.96484375 40.83203125 C-40.94954834 43.1587499 -39.94996177 45.49237595 -38.96484375 47.83203125 C-34.19598624 52.44705464 -28.52498888 52.02463658 -22.27734375 52.01953125 C-21.47312988 52.02017578 -20.66891602 52.02082031 -19.84033203 52.02148438 C-14.28613153 51.9719837 -9.31458868 51.41714086 -3.96484375 49.83203125 C-3.71734375 48.59453125 -3.46984375 47.35703125 -3.21484375 46.08203125 C-3.075625 45.3859375 -2.93640625 44.68984375 -2.79296875 43.97265625 C-2.7970613 41.69060592 -2.7970613 41.69060592 -4.453125 39.66796875 C-7.75203212 37.25663695 -10.95221691 36.76088154 -14.90234375 36.20703125 C-15.65507568 36.08714844 -16.40780762 35.96726563 -17.18334961 35.84375 C-20.68069272 35.29253227 -24.18532919 34.8010616 -27.69140625 34.30859375 C-43.87490473 31.9966654 -43.87490473 31.9966654 -49.96484375 24.83203125 C-53.21627105 19.95489031 -52.54697522 14.53411423 -51.96484375 8.83203125 C-50.94758545 6.16110181 -49.9482373 4.98542996 -47.96484375 2.83203125 C-47.42859375 2.21328125 -46.89234375 1.59453125 -46.33984375 0.95703125 C-44.96484375 -0.16796875 -44.96484375 -0.16796875 -42.96484375 -0.16796875 C-42.96484375 -0.82796875 -42.96484375 -1.48796875 -42.96484375 -2.16796875 C-28.71613458 -6.26691248 -13.31324342 -7.91383655 0 0 Z " fill="#FCFCFE" transform="translate(219.96484375,152.16796875)"/>
<path d="M0 0 C4.95 0 9.9 0 15 0 C15 4.95 15 9.9 15 15 C19.95 15 24.9 15 30 15 C30 19.95 30 24.9 30 30 C34.95 30 39.9 30 45 30 C45 34.95 45 39.9 45 45 C49.95 45 54.9 45 60 45 C60 49.95 60 54.9 60 60 C64.95 60 69.9 60 75 60 C75 64.95 75 69.9 75 75 C79.95 75 84.9 75 90 75 C90 79.95 90 84.9 90 90 C94.95 90 99.9 90 105 90 C105 94.95 105 99.9 105 105 C97.24776192 105.95814179 97.24776192 105.95814179 93 105 C89.80821579 101.77389553 88.03267531 98.02210221 86 94 C85.05081572 92.62465135 84.07592987 91.26621916 83.0625 89.9375 C81 87 81 87 81 85 C80.34 85 79.68 85 79 85 C77.4140625 83.20703125 77.4140625 83.20703125 75.625 80.8125 C74.99851562 79.9875 74.37203125 79.1625 73.7265625 78.3125 C72.48297363 76.64687871 71.24097956 74.98006628 70 73.3125 C67.69340213 70.64549621 65.14405671 68.52436448 62.390625 66.33203125 C61.93171875 65.89246094 61.4728125 65.45289062 61 65 C61 64.34 61 63.68 61 63 C60.34 63 59.68 63 59 63 C59 62.34 59 61.68 59 61 C58.43152344 60.76023438 57.86304688 60.52046875 57.27734375 60.2734375 C54.53779977 58.74154841 52.73254305 56.88906571 50.5625 54.625 C47.51148299 51.49908077 44.45055447 48.68376459 41 46 C40.278125 45.2575 39.55625 44.515 38.8125 43.75 C34.79900568 39.82569444 30.42839632 36.44369701 26 33 C25.34821777 32.49307617 24.69643555 31.98615234 24.02490234 31.46386719 C21.83274996 29.762809 19.63518868 28.0688972 17.4375 26.375 C16.70184814 25.80128662 15.96619629 25.22757324 15.20825195 24.63647461 C11.40615037 21.70335172 7.72519903 19.25383985 3.4375 17.0625 C1.40625 15.80859375 1.40625 15.80859375 0 14 C-0.75144784 9.09901296 -0.42469396 5.00195105 0 0 Z " fill="#EFEEEF" transform="translate(225,30)"/>
<path d="M0 0 C0.33 0.66 0.66 1.32 1 2 C-2.48232455 0.71944538 -5.63698798 -0.87851104 -8.85693359 -2.71606445 C-28.9587861 -14.0699382 -52.90563601 -20.44472684 -75.75 -14.75 C-95.01412678 -8.74969822 -110.25272163 1.5350509 -124.87109375 15.21484375 C-127 17 -127 17 -130 18 C-130 18.66 -130 19.32 -130 20 C-132.375 22.625 -132.375 22.625 -135 25 C-135.66 25 -136.32 25 -137 25 C-137.20496094 25.53367188 -137.40992188 26.06734375 -137.62109375 26.6171875 C-139.57832646 29.99937434 -142.2596965 32.43037488 -145.0625 35.125 C-149.0044894 38.69553366 -149.0044894 38.69553366 -152 43 C-152.66 43 -153.32 43 -154 43 C-154.27150879 43.5882959 -154.54301758 44.1765918 -154.82275391 44.78271484 C-155.98190395 46.96591697 -157.22142779 48.61318609 -158.8359375 50.4765625 C-159.39974121 51.137771 -159.96354492 51.79897949 -160.54443359 52.48022461 C-161.45056396 53.54188843 -161.45056396 53.54188843 -162.375 54.625 C-182.67408021 78.9508427 -197.77255751 106.87193908 -195.29101562 139.52050781 C-194.08602285 149.78720799 -190.5282522 159.16440661 -185.0390625 167.8984375 C-184 170 -184 170 -185 173 C-192.95666783 158.68958528 -199.42731325 145.07212636 -199.3125 128.375 C-199.30686035 127.50327148 -199.3012207 126.63154297 -199.29541016 125.73339844 C-198.80136288 99.05484547 -186.19461677 76.36996354 -170 56 C-169.19046875 54.97648437 -168.3809375 53.95296875 -167.546875 52.8984375 C-163.27082703 47.59075557 -158.81255451 42.47180632 -154.21875 37.4375 C-152.80839457 35.88809544 -151.41093218 34.32677964 -150.03125 32.75 C-134.98155888 15.61650549 -118.91628452 0.28506782 -99 -11 C-98.03707031 -11.55558594 -97.07414062 -12.11117187 -96.08203125 -12.68359375 C-64.81984833 -29.60145522 -27.37470023 -20.21199671 0 0 Z " fill="#090A46" transform="translate(234,56)"/>
<path d="M0 0 C8.0258091 6.68817425 10.66034918 21.5453188 12.6875 31.3125 C12.790625 32.529375 12.89375 33.74625 13 35 C13.08765625 35.88945312 13.1753125 36.77890625 13.265625 37.6953125 C13.91305443 49.90818591 10.30443855 61.35507274 7 73 C6.46632813 74.89298828 6.46632813 74.89298828 5.921875 76.82421875 C3.79363321 83.72296861 0.69444925 89.81269422 -3 96 C-3.73476563 97.27230469 -3.73476563 97.27230469 -4.484375 98.5703125 C-9.37785406 106.6857357 -15.39612386 113.84991418 -21.44140625 121.11669922 C-22.84053222 122.80730976 -24.22210995 124.50972879 -25.59375 126.22265625 C-29.31246249 130.85194388 -33.0810887 135.22992053 -37.3515625 139.35546875 C-39.00265131 141.00264502 -40.49642127 142.71783942 -42 144.5 C-51.00519975 154.90465647 -60.99134345 164.73955901 -72 173 C-73.48693359 174.11955078 -73.48693359 174.11955078 -75.00390625 175.26171875 C-87.020503 183.94610585 -99.63919012 190.2050711 -114 194 C-115.03447266 194.33644531 -115.03447266 194.33644531 -116.08984375 194.6796875 C-131.99851756 199.59018724 -150.68853037 193.94569675 -165.9375 189 C-166.67645508 188.7632959 -167.41541016 188.5265918 -168.17675781 188.28271484 C-172.46383004 186.81283304 -175.59030598 185.09608224 -179 182 C-174.92237368 182.6961801 -171.20670319 183.92875123 -167.3125 185.3125 C-143.74838811 193.35067007 -121.16219743 194.70080329 -98.125 183.875 C-89.76947563 179.75277044 -82.28185287 174.78515204 -75 169 C-74.01773438 168.23945313 -73.03546875 167.47890625 -72.0234375 166.6953125 C-64.42795526 160.55219637 -57.52979212 153.70872679 -50.625 146.8125 C-50.15046387 146.33905151 -49.67592773 145.86560303 -49.18701172 145.37780762 C-43.57231576 139.76165304 -38.12798598 134.06425797 -33 128 C-32.18063965 127.04081665 -32.18063965 127.04081665 -31.34472656 126.06225586 C-13.67793075 105.26578045 0.46364567 85.09498147 6.51293945 58.1027832 C6.99051652 56.04094299 7.54328211 54.00995488 8.1015625 51.96875 C11.96384513 36.49103819 8.38740457 18.51578641 0.77832031 4.73095703 C0 3 0 3 0 0 Z " fill="#13134C" transform="translate(317,134)"/>
<path d="M0 0 C2.88549552 1.75647533 2.88549552 1.75647533 5.62890625 2.7421875 C8.43491145 3.90487155 10.37574738 5.42174618 12.7109375 7.359375 C13.56816406 8.06320313 14.42539063 8.76703125 15.30859375 9.4921875 C16.65244141 10.60207031 16.65244141 10.60207031 18.0234375 11.734375 C19.89594943 13.23747981 21.77084201 14.73762512 23.6484375 16.234375 C25.10677083 17.40104167 26.56510417 18.56770833 28.0234375 19.734375 C23.56991951 19.734375 20.69603133 18.18277088 17.0234375 15.734375 C17.0234375 15.074375 17.0234375 14.414375 17.0234375 13.734375 C15.96962891 13.36892578 15.96962891 13.36892578 14.89453125 12.99609375 C11.59133447 11.54448482 8.99608008 9.67902234 6.0859375 7.546875 C-9.79829629 -3.65557113 -28.58863643 -10.32990496 -47.9765625 -12.265625 C-48.67652344 -12.33652344 -49.37648437 -12.40742187 -50.09765625 -12.48046875 C-76.56745059 -13.73140421 -99.74572 1.76808052 -118.5390625 18.671875 C-123.87711037 23.57980935 -129.02589367 28.68127735 -134.1640625 33.796875 C-134.91953369 34.54767334 -135.67500488 35.29847168 -136.45336914 36.07202148 C-137.15582764 36.77657471 -137.85828613 37.48112793 -138.58203125 38.20703125 C-139.52792114 39.15461304 -139.52792114 39.15461304 -140.49291992 40.12133789 C-142.06550242 41.68196654 -142.06550242 41.68196654 -142.9765625 43.734375 C-143.6365625 43.734375 -144.2965625 43.734375 -144.9765625 43.734375 C-145.23179687 44.30929688 -145.48703125 44.88421875 -145.75 45.4765625 C-147.10693839 47.97436629 -148.67109396 49.77508426 -150.6015625 51.859375 C-170.24418737 73.58637913 -184.53559757 96.59143482 -189.43383789 125.78540039 C-189.61293701 126.42856201 -189.79203613 127.07172363 -189.9765625 127.734375 C-190.6365625 128.064375 -191.2965625 128.394375 -191.9765625 128.734375 C-193.22619308 99.87571878 -175.05112357 74.63815488 -157.52148438 53.65283203 C-155.32304337 50.92284635 -153.28940339 48.07893365 -151.26464844 45.21850586 C-150.83958008 44.72874268 -150.41451172 44.23897949 -149.9765625 43.734375 C-149.3165625 43.734375 -148.6565625 43.734375 -147.9765625 43.734375 C-147.77160156 43.20070312 -147.56664062 42.66703125 -147.35546875 42.1171875 C-145.39823604 38.73500066 -142.716866 36.30400012 -139.9140625 33.609375 C-135.9720731 30.03884134 -135.9720731 30.03884134 -132.9765625 25.734375 C-132.3165625 25.734375 -131.6565625 25.734375 -130.9765625 25.734375 C-130.7084375 25.095 -130.4403125 24.455625 -130.1640625 23.796875 C-128.9765625 21.734375 -128.9765625 21.734375 -125.9765625 20.734375 C-125.9765625 20.074375 -125.9765625 19.414375 -125.9765625 18.734375 C-123.51397077 16.18710962 -120.69473952 14.00312371 -117.9765625 11.734375 C-117.15542969 11.02667969 -116.33429688 10.31898437 -115.48828125 9.58984375 C-104.63674798 0.41025042 -93.14459192 -6.8517137 -79.9765625 -12.265625 C-78.82800781 -12.74128906 -78.82800781 -12.74128906 -77.65625 -13.2265625 C-51.54826194 -22.95684587 -22.77133688 -13.69465015 0 0 Z " fill="#535FC1" transform="translate(229.9765625,55.265625)"/>
<path d="M0 0 C1.93899069 3.67304741 2.6789336 6.88321524 3 11 C3.08894531 11.89847656 3.17789063 12.79695312 3.26953125 13.72265625 C3.90709642 25.92535708 0.30171323 37.36467683 -3 49 C-3.53367187 50.89298828 -3.53367187 50.89298828 -4.078125 52.82421875 C-6.20636679 59.72296861 -9.30555075 65.81269422 -13 72 C-13.73476563 73.27230469 -13.73476563 73.27230469 -14.484375 74.5703125 C-19.37785406 82.6857357 -25.39612386 89.84991418 -31.44140625 97.11669922 C-32.84053222 98.80730976 -34.22210995 100.50972879 -35.59375 102.22265625 C-39.31246249 106.85194388 -43.0810887 111.22992053 -47.3515625 115.35546875 C-49.00265131 117.00264502 -50.49642127 118.71783942 -52 120.5 C-61.00519975 130.90465647 -70.99134345 140.73955901 -82 149 C-83.48693359 150.11955078 -83.48693359 150.11955078 -85.00390625 151.26171875 C-97.020503 159.94610585 -109.63919012 166.2050711 -124 170 C-125.03447266 170.33644531 -125.03447266 170.33644531 -126.08984375 170.6796875 C-132.56200696 172.67743767 -139.29685776 172.16946146 -146 172 C-142.34317204 169.75035647 -138.9153806 169.56805107 -134.6875 169.1875 C-101.21327968 165.5263767 -73.78038493 140.95952215 -52 117 C-51.67 116.34 -51.34 115.68 -51 115 C-50.34 115 -49.68 115 -49 115 C-48.76539063 114.44570313 -48.53078125 113.89140625 -48.2890625 113.3203125 C-46.67545708 110.41582275 -44.65276205 108.29379995 -42.375 105.875 C-37.64875254 100.77225054 -33.23627241 95.5157359 -29 90 C-28.58637207 89.47486816 -28.17274414 88.94973633 -27.74658203 88.40869141 C-15.23816372 72.48182337 -6.76689833 55.71743795 -2 36 C-1.70633545 34.84516113 -1.70633545 34.84516113 -1.40673828 33.66699219 C0.2332689 26.5617368 0.23028384 19.63958527 0.125 12.375 C0.11597656 11.18003906 0.10695313 9.98507813 0.09765625 8.75390625 C0.07431077 5.83572166 0.04156656 2.91797224 0 0 Z " fill="#4A3B41" transform="translate(327,158)"/>
<path d="M0 0 C0 2.97 0 5.94 0 9 C-4.95 9 -9.9 9 -15 9 C-15 13.95 -15 18.9 -15 24 C-19.95 24 -24.9 24 -30 24 C-30.3678733 10.63393665 -30.3678733 10.63393665 -28.94140625 8.17578125 C-26.06594099 6.43430229 -22.99092375 5.74839335 -19.75 5 C-15.74976104 4.05405171 -11.96423759 3.06132398 -8.19921875 1.38671875 C-5.1132368 0.04908311 -3.30250359 -0.3002276 0 0 Z " fill="#EDECED" transform="translate(225,321)"/>
<path d="M0 0 C1.52940949 0.37848447 3.05936117 0.75478467 4.58984375 1.12890625 C5.33862793 1.31211426 6.08741211 1.49532227 6.85888672 1.68408203 C11.20402671 2.70571016 15.59678859 3.46472664 20 4.1875 C19.67 4.8475 19.34 5.5075 19 6.1875 C18.92883618 8.56152501 18.91590915 10.93750677 18.9375 13.3125 C18.958125 15.58125 18.97875 17.85 19 20.1875 C14.05 20.1875 9.1 20.1875 4 20.1875 C4 15.2375 4 10.2875 4 5.1875 C-0.95 5.1875 -5.9 5.1875 -11 5.1875 C-11 3.2075 -11 1.2275 -11 -0.8125 C-6.9811105 -2.15212983 -3.96820225 -1.0223282 0 0 Z " fill="#EEEDEE" transform="translate(161,324.8125)"/>
<path d="M0 0 C-0.96679688 0.27457031 -0.96679688 0.27457031 -1.953125 0.5546875 C-4.37444944 1.90811895 -4.37444944 1.90811895 -4.609375 5.2578125 C-4.67898437 7.17207031 -4.67898437 7.17207031 -4.75 9.125 C-4.8325 11.39375 -4.915 13.6625 -5 16 C-9.95 16 -14.9 16 -20 16 C-20 11.38 -20 6.76 -20 2 C-20.99 1.67 -21.98 1.34 -23 1 C-20.10425766 0.83160792 -17.20842326 0.66522615 -14.3125 0.5 C-13.08756836 0.42845703 -13.08756836 0.42845703 -11.83789062 0.35546875 C-7.88646942 0.13150156 -3.95981243 -0.06451833 0 0 Z " fill="#FFFFFF" transform="translate(200,329)"/>
<path d="M0 0 C0.66 0 1.32 0 2 0 C2 0.66 2 1.32 2 2 C5.63 2.33 9.26 2.66 13 3 C13 7.95 13 12.9 13 18 C8.05 18 3.1 18 -2 18 C-2.33 15.69 -2.66 13.38 -3 11 C-3.33 10.01 -3.66 9.02 -4 8 C-3.22265625 5.95703125 -3.22265625 5.95703125 -2.0625 3.8125 C-1.68222656 3.09707031 -1.30195313 2.38164062 -0.91015625 1.64453125 C-0.60980469 1.10183594 -0.30945313 0.55914062 0 0 Z " fill="#FEFEFE" transform="translate(317,222)"/>
<path d="M0 0 C4.95 0 9.9 0 15 0 C15 4.95 15 9.9 15 15 C10.05 15 5.1 15 0 15 C0 10.05 0 5.1 0 0 Z " fill="#FFFFFF" transform="translate(345,345)"/>
<path d="M0 0 C4.95 0 9.9 0 15 0 C15 4.95 15 9.9 15 15 C10.05 15 5.1 15 0 15 C0 10.05 0 5.1 0 0 Z " fill="#EFEEEF" transform="translate(330,345)"/>
<path d="M0 0 C4.95 0 9.9 0 15 0 C15 4.95 15 9.9 15 15 C10.05 15 5.1 15 0 15 C0 10.05 0 5.1 0 0 Z " fill="#FFFFFF" transform="translate(315,345)"/>
<path d="M0 0 C4.95 0 9.9 0 15 0 C15 4.95 15 9.9 15 15 C10.05 15 5.1 15 0 15 C0 10.05 0 5.1 0 0 Z " fill="#EFEEEF" transform="translate(300,345)"/>
<path d="M0 0 C4.95 0 9.9 0 15 0 C15 4.95 15 9.9 15 15 C10.05 15 5.1 15 0 15 C0 10.05 0 5.1 0 0 Z " fill="#FFFFFF" transform="translate(285,345)"/>
<path d="M0 0 C4.95 0 9.9 0 15 0 C15 4.95 15 9.9 15 15 C10.05 15 5.1 15 0 15 C0 10.05 0 5.1 0 0 Z " fill="#EFEEEF" transform="translate(270,345)"/>
<path d="M0 0 C4.95 0 9.9 0 15 0 C15 4.95 15 9.9 15 15 C10.05 15 5.1 15 0 15 C0 10.05 0 5.1 0 0 Z " fill="#FFFFFF" transform="translate(255,345)"/>
<path d="M0 0 C4.95 0 9.9 0 15 0 C15 4.95 15 9.9 15 15 C10.05 15 5.1 15 0 15 C0 10.05 0 5.1 0 0 Z " fill="#EFEEEF" transform="translate(240,345)"/>
<path d="M0 0 C4.95 0 9.9 0 15 0 C15 4.95 15 9.9 15 15 C10.05 15 5.1 15 0 15 C0 10.05 0 5.1 0 0 Z " fill="#FFFFFF" transform="translate(225,345)"/>
<path d="M0 0 C4.95 0 9.9 0 15 0 C15 4.95 15 9.9 15 15 C10.05 15 5.1 15 0 15 C0 10.05 0 5.1 0 0 Z " fill="#EFEEEF" transform="translate(210,345)"/>
<path d="M0 0 C4.95 0 9.9 0 15 0 C15 4.95 15 9.9 15 15 C10.05 15 5.1 15 0 15 C0 10.05 0 5.1 0 0 Z " fill="#FFFFFF" transform="translate(195,345)"/>
<path d="M0 0 C4.95 0 9.9 0 15 0 C15 4.95 15 9.9 15 15 C10.05 15 5.1 15 0 15 C0 10.05 0 5.1 0 0 Z " fill="#EFEEEF" transform="translate(180,345)"/>
<path d="M0 0 C4.95 0 9.9 0 15 0 C15 4.95 15 9.9 15 15 C10.05 15 5.1 15 0 15 C0 10.05 0 5.1 0 0 Z " fill="#FFFFFF" transform="translate(165,345)"/>
<path d="M0 0 C4.95 0 9.9 0 15 0 C15 4.95 15 9.9 15 15 C10.05 15 5.1 15 0 15 C0 10.05 0 5.1 0 0 Z " fill="#EFEEEF" transform="translate(150,345)"/>
<path d="M0 0 C4.95 0 9.9 0 15 0 C15 4.95 15 9.9 15 15 C10.05 15 5.1 15 0 15 C0 10.05 0 5.1 0 0 Z " fill="#FFFFFF" transform="translate(135,345)"/>
<path d="M0 0 C4.95 0 9.9 0 15 0 C15 4.95 15 9.9 15 15 C10.05 15 5.1 15 0 15 C0 10.05 0 5.1 0 0 Z " fill="#EFEEEF" transform="translate(120,345)"/>
<path d="M0 0 C4.95 0 9.9 0 15 0 C15 4.95 15 9.9 15 15 C10.05 15 5.1 15 0 15 C0 10.05 0 5.1 0 0 Z " fill="#FFFFFF" transform="translate(105,345)"/>
<path d="M0 0 C4.95 0 9.9 0 15 0 C15 4.95 15 9.9 15 15 C10.05 15 5.1 15 0 15 C0 10.05 0 5.1 0 0 Z " fill="#EFEEEF" transform="translate(90,345)"/>
<path d="M0 0 C4.95 0 9.9 0 15 0 C15 4.95 15 9.9 15 15 C10.05 15 5.1 15 0 15 C0 10.05 0 5.1 0 0 Z " fill="#FFFFFF" transform="translate(75,345)"/>
<path d="M0 0 C4.95 0 9.9 0 15 0 C15 4.95 15 9.9 15 15 C10.05 15 5.1 15 0 15 C0 10.05 0 5.1 0 0 Z " fill="#EFEEEF" transform="translate(60,345)"/>
<path d="M0 0 C4.95 0 9.9 0 15 0 C15 4.95 15 9.9 15 15 C10.05 15 5.1 15 0 15 C0 10.05 0 5.1 0 0 Z " fill="#FFFFFF" transform="translate(45,345)"/>
<path d="M0 0 C4.95 0 9.9 0 15 0 C15 4.95 15 9.9 15 15 C10.05 15 5.1 15 0 15 C0 10.05 0 5.1 0 0 Z " fill="#EFEEEF" transform="translate(30,345)"/>
<path d="M0 0 C4.95 0 9.9 0 15 0 C15 4.95 15 9.9 15 15 C10.05 15 5.1 15 0 15 C0 10.05 0 5.1 0 0 Z " fill="#FFFFFF" transform="translate(15,345)"/>
<path d="M0 0 C4.95 0 9.9 0 15 0 C15 4.95 15 9.9 15 15 C10.05 15 5.1 15 0 15 C0 10.05 0 5.1 0 0 Z " fill="#EFEEEF" transform="translate(0,345)"/>
<path d="M0 0 C4.95 0 9.9 0 15 0 C15 4.95 15 9.9 15 15 C10.05 15 5.1 15 0 15 C0 10.05 0 5.1 0 0 Z " fill="#EFEEEF" transform="translate(345,330)"/>
<path d="M0 0 C4.95 0 9.9 0 15 0 C15 4.95 15 9.9 15 15 C10.05 15 5.1 15 0 15 C0 10.05 0 5.1 0 0 Z " fill="#FFFFFF" transform="translate(330,330)"/>
<path d="M0 0 C4.95 0 9.9 0 15 0 C15 4.95 15 9.9 15 15 C10.05 15 5.1 15 0 15 C0 10.05 0 5.1 0 0 Z " fill="#EFEEEF" transform="translate(315,330)"/>
<path d="M0 0 C4.95 0 9.9 0 15 0 C15 4.95 15 9.9 15 15 C10.05 15 5.1 15 0 15 C0 10.05 0 5.1 0 0 Z " fill="#FFFFFF" transform="translate(300,330)"/>
<path d="M0 0 C4.95 0 9.9 0 15 0 C15 4.95 15 9.9 15 15 C10.05 15 5.1 15 0 15 C0 10.05 0 5.1 0 0 Z " fill="#EFEEEF" transform="translate(285,330)"/>
<path d="M0 0 C4.95 0 9.9 0 15 0 C15 4.95 15 9.9 15 15 C10.05 15 5.1 15 0 15 C0 10.05 0 5.1 0 0 Z " fill="#FFFFFF" transform="translate(270,330)"/>
<path d="M0 0 C4.95 0 9.9 0 15 0 C15 4.95 15 9.9 15 15 C10.05 15 5.1 15 0 15 C0 10.05 0 5.1 0 0 Z " fill="#EFEEEF" transform="translate(255,330)"/>
<path d="M0 0 C4.95 0 9.9 0 15 0 C15 4.95 15 9.9 15 15 C10.05 15 5.1 15 0 15 C0 10.05 0 5.1 0 0 Z " fill="#FFFFFF" transform="translate(240,330)"/>
<path d="M0 0 C4.95 0 9.9 0 15 0 C15 4.95 15 9.9 15 15 C10.05 15 5.1 15 0 15 C0 10.05 0 5.1 0 0 Z " fill="#FFFFFF" transform="translate(210,330)"/>
<path d="M0 0 C4.95 0 9.9 0 15 0 C15 4.95 15 9.9 15 15 C10.05 15 5.1 15 0 15 C0 10.05 0 5.1 0 0 Z " fill="#FFFFFF" transform="translate(150,330)"/>
<path d="M0 0 C4.95 0 9.9 0 15 0 C15 4.95 15 9.9 15 15 C10.05 15 5.1 15 0 15 C0 10.05 0 5.1 0 0 Z " fill="#EFEEEF" transform="translate(135,330)"/>
<path d="M0 0 C4.95 0 9.9 0 15 0 C15 4.95 15 9.9 15 15 C10.05 15 5.1 15 0 15 C0 10.05 0 5.1 0 0 Z " fill="#FFFFFF" transform="translate(120,330)"/>
<path d="M0 0 C4.95 0 9.9 0 15 0 C15 4.95 15 9.9 15 15 C10.05 15 5.1 15 0 15 C0 10.05 0 5.1 0 0 Z " fill="#EFEEEF" transform="translate(105,330)"/>
<path d="M0 0 C4.95 0 9.9 0 15 0 C15 4.95 15 9.9 15 15 C10.05 15 5.1 15 0 15 C0 10.05 0 5.1 0 0 Z " fill="#FFFFFF" transform="translate(90,330)"/>
<path d="M0 0 C4.95 0 9.9 0 15 0 C15 4.95 15 9.9 15 15 C10.05 15 5.1 15 0 15 C0 10.05 0 5.1 0 0 Z " fill="#EFEEEF" transform="translate(75,330)"/>
<path d="M0 0 C4.95 0 9.9 0 15 0 C15 4.95 15 9.9 15 15 C10.05 15 5.1 15 0 15 C0 10.05 0 5.1 0 0 Z " fill="#FFFFFF" transform="translate(60,330)"/>
<path d="M0 0 C4.95 0 9.9 0 15 0 C15 4.95 15 9.9 15 15 C10.05 15 5.1 15 0 15 C0 10.05 0 5.1 0 0 Z " fill="#EFEEEF" transform="translate(45,330)"/>
<path d="M0 0 C4.95 0 9.9 0 15 0 C15 4.95 15 9.9 15 15 C10.05 15 5.1 15 0 15 C0 10.05 0 5.1 0 0 Z " fill="#FFFFFF" transform="translate(30,330)"/>
<path d="M0 0 C4.95 0 9.9 0 15 0 C15 4.95 15 9.9 15 15 C10.05 15 5.1 15 0 15 C0 10.05 0 5.1 0 0 Z " fill="#EFEEEF" transform="translate(15,330)"/>
<path d="M0 0 C4.95 0 9.9 0 15 0 C15 4.95 15 9.9 15 15 C10.05 15 5.1 15 0 15 C0 10.05 0 5.1 0 0 Z " fill="#FFFFFF" transform="translate(0,330)"/>
<path d="M0 0 C4.95 0 9.9 0 15 0 C15 4.95 15 9.9 15 15 C10.05 15 5.1 15 0 15 C0 10.05 0 5.1 0 0 Z " fill="#FFFFFF" transform="translate(345,315)"/>
<path d="M0 0 C4.95 0 9.9 0 15 0 C15 4.95 15 9.9 15 15 C10.05 15 5.1 15 0 15 C0 10.05 0 5.1 0 0 Z " fill="#EFEEEF" transform="translate(330,315)"/>
<path d="M0 0 C4.95 0 9.9 0 15 0 C15 4.95 15 9.9 15 15 C10.05 15 5.1 15 0 15 C0 10.05 0 5.1 0 0 Z " fill="#FFFFFF" transform="translate(315,315)"/>
<path d="M0 0 C4.95 0 9.9 0 15 0 C15 4.95 15 9.9 15 15 C10.05 15 5.1 15 0 15 C0 10.05 0 5.1 0 0 Z " fill="#EFEEEF" transform="translate(300,315)"/>
<path d="M0 0 C4.95 0 9.9 0 15 0 C15 4.95 15 9.9 15 15 C10.05 15 5.1 15 0 15 C0 10.05 0 5.1 0 0 Z " fill="#FFFFFF" transform="translate(285,315)"/>
<path d="M0 0 C4.95 0 9.9 0 15 0 C15 4.95 15 9.9 15 15 C10.05 15 5.1 15 0 15 C0 10.05 0 5.1 0 0 Z " fill="#EFEEEF" transform="translate(270,315)"/>
<path d="M0 0 C4.95 0 9.9 0 15 0 C15 4.95 15 9.9 15 15 C10.05 15 5.1 15 0 15 C0 10.05 0 5.1 0 0 Z " fill="#FFFFFF" transform="translate(255,315)"/>
<path d="M0 0 C4.95 0 9.9 0 15 0 C15 4.95 15 9.9 15 15 C10.05 15 5.1 15 0 15 C0 10.05 0 5.1 0 0 Z " fill="#EFEEEF" transform="translate(240,315)"/>
<path d="M0 0 C4.95 0 9.9 0 15 0 C15 4.95 15 9.9 15 15 C10.05 15 5.1 15 0 15 C0 10.05 0 5.1 0 0 Z " fill="#FFFFFF" transform="translate(105,315)"/>
<path d="M0 0 C4.95 0 9.9 0 15 0 C15 4.95 15 9.9 15 15 C10.05 15 5.1 15 0 15 C0 10.05 0 5.1 0 0 Z " fill="#EFEEEF" transform="translate(90,315)"/>
<path d="M0 0 C4.95 0 9.9 0 15 0 C15 4.95 15 9.9 15 15 C10.05 15 5.1 15 0 15 C0 10.05 0 5.1 0 0 Z " fill="#FFFFFF" transform="translate(75,315)"/>
<path d="M0 0 C4.95 0 9.9 0 15 0 C15 4.95 15 9.9 15 15 C10.05 15 5.1 15 0 15 C0 10.05 0 5.1 0 0 Z " fill="#EFEEEF" transform="translate(60,315)"/>
<path d="M0 0 C4.95 0 9.9 0 15 0 C15 4.95 15 9.9 15 15 C10.05 15 5.1 15 0 15 C0 10.05 0 5.1 0 0 Z " fill="#FFFFFF" transform="translate(45,315)"/>
<path d="M0 0 C4.95 0 9.9 0 15 0 C15 4.95 15 9.9 15 15 C10.05 15 5.1 15 0 15 C0 10.05 0 5.1 0 0 Z " fill="#EFEEEF" transform="translate(30,315)"/>
<path d="M0 0 C4.95 0 9.9 0 15 0 C15 4.95 15 9.9 15 15 C10.05 15 5.1 15 0 15 C0 10.05 0 5.1 0 0 Z " fill="#FFFFFF" transform="translate(15,315)"/>
<path d="M0 0 C4.95 0 9.9 0 15 0 C15 4.95 15 9.9 15 15 C10.05 15 5.1 15 0 15 C0 10.05 0 5.1 0 0 Z " fill="#EFEEEF" transform="translate(0,315)"/>
<path d="M0 0 C4.95 0 9.9 0 15 0 C15 4.95 15 9.9 15 15 C10.05 15 5.1 15 0 15 C0 10.05 0 5.1 0 0 Z " fill="#EFEEEF" transform="translate(345,300)"/>
<path d="M0 0 C4.95 0 9.9 0 15 0 C15 4.95 15 9.9 15 15 C10.05 15 5.1 15 0 15 C0 10.05 0 5.1 0 0 Z " fill="#FFFFFF" transform="translate(330,300)"/>
<path d="M0 0 C4.95 0 9.9 0 15 0 C15 4.95 15 9.9 15 15 C10.05 15 5.1 15 0 15 C0 10.05 0 5.1 0 0 Z " fill="#EFEEEF" transform="translate(315,300)"/>
<path d="M0 0 C4.95 0 9.9 0 15 0 C15 4.95 15 9.9 15 15 C10.05 15 5.1 15 0 15 C0 10.05 0 5.1 0 0 Z " fill="#FFFFFF" transform="translate(300,300)"/>
<path d="M0 0 C4.95 0 9.9 0 15 0 C15 4.95 15 9.9 15 15 C10.05 15 5.1 15 0 15 C0 10.05 0 5.1 0 0 Z " fill="#EFEEEF" transform="translate(285,300)"/>
<path d="M0 0 C4.95 0 9.9 0 15 0 C15 4.95 15 9.9 15 15 C10.05 15 5.1 15 0 15 C0 10.05 0 5.1 0 0 Z " fill="#FFFFFF" transform="translate(270,300)"/>
<path d="M0 0 C4.95 0 9.9 0 15 0 C15 4.95 15 9.9 15 15 C10.05 15 5.1 15 0 15 C0 10.05 0 5.1 0 0 Z " fill="#EFEEEF" transform="translate(255,300)"/>
<path d="M0 0 C4.95 0 9.9 0 15 0 C15 4.95 15 9.9 15 15 C10.05 15 5.1 15 0 15 C0 10.05 0 5.1 0 0 Z " fill="#FFFFFF" transform="translate(90,300)"/>
<path d="M0 0 C4.95 0 9.9 0 15 0 C15 4.95 15 9.9 15 15 C10.05 15 5.1 15 0 15 C0 10.05 0 5.1 0 0 Z " fill="#EFEEEF" transform="translate(75,300)"/>
<path d="M0 0 C4.95 0 9.9 0 15 0 C15 4.95 15 9.9 15 15 C10.05 15 5.1 15 0 15 C0 10.05 0 5.1 0 0 Z " fill="#FFFFFF" transform="translate(60,300)"/>
<path d="M0 0 C4.95 0 9.9 0 15 0 C15 4.95 15 9.9 15 15 C10.05 15 5.1 15 0 15 C0 10.05 0 5.1 0 0 Z " fill="#EFEEEF" transform="translate(45,300)"/>
<path d="M0 0 C4.95 0 9.9 0 15 0 C15 4.95 15 9.9 15 15 C10.05 15 5.1 15 0 15 C0 10.05 0 5.1 0 0 Z " fill="#FFFFFF" transform="translate(30,300)"/>
<path d="M0 0 C4.95 0 9.9 0 15 0 C15 4.95 15 9.9 15 15 C10.05 15 5.1 15 0 15 C0 10.05 0 5.1 0 0 Z " fill="#EFEEEF" transform="translate(15,300)"/>
<path d="M0 0 C4.95 0 9.9 0 15 0 C15 4.95 15 9.9 15 15 C10.05 15 5.1 15 0 15 C0 10.05 0 5.1 0 0 Z " fill="#FFFFFF" transform="translate(0,300)"/>
<path d="M0 0 C4.95 0 9.9 0 15 0 C15 4.95 15 9.9 15 15 C10.05 15 5.1 15 0 15 C0 10.05 0 5.1 0 0 Z " fill="#FFFFFF" transform="translate(345,285)"/>
<path d="M0 0 C4.95 0 9.9 0 15 0 C15 4.95 15 9.9 15 15 C10.05 15 5.1 15 0 15 C0 10.05 0 5.1 0 0 Z " fill="#EFEEEF" transform="translate(330,285)"/>
<path d="M0 0 C4.95 0 9.9 0 15 0 C15 4.95 15 9.9 15 15 C10.05 15 5.1 15 0 15 C0 10.05 0 5.1 0 0 Z " fill="#FFFFFF" transform="translate(315,285)"/>
<path d="M0 0 C4.95 0 9.9 0 15 0 C15 4.95 15 9.9 15 15 C10.05 15 5.1 15 0 15 C0 10.05 0 5.1 0 0 Z " fill="#EFEEEF" transform="translate(300,285)"/>
<path d="M0 0 C4.95 0 9.9 0 15 0 C15 4.95 15 9.9 15 15 C10.05 15 5.1 15 0 15 C0 10.05 0 5.1 0 0 Z " fill="#FFFFFF" transform="translate(285,285)"/>
<path d="M0 0 C4.95 0 9.9 0 15 0 C15 4.95 15 9.9 15 15 C10.05 15 5.1 15 0 15 C0 10.05 0 5.1 0 0 Z " fill="#EFEEEF" transform="translate(270,285)"/>
<path d="M0 0 C4.95 0 9.9 0 15 0 C15 4.95 15 9.9 15 15 C10.05 15 5.1 15 0 15 C0 10.05 0 5.1 0 0 Z " fill="#FFFFFF" transform="translate(75,285)"/>
<path d="M0 0 C4.95 0 9.9 0 15 0 C15 4.95 15 9.9 15 15 C10.05 15 5.1 15 0 15 C0 10.05 0 5.1 0 0 Z " fill="#EFEEEF" transform="translate(60,285)"/>
<path d="M0 0 C4.95 0 9.9 0 15 0 C15 4.95 15 9.9 15 15 C10.05 15 5.1 15 0 15 C0 10.05 0 5.1 0 0 Z " fill="#FFFFFF" transform="translate(45,285)"/>
<path d="M0 0 C4.95 0 9.9 0 15 0 C15 4.95 15 9.9 15 15 C10.05 15 5.1 15 0 15 C0 10.05 0 5.1 0 0 Z " fill="#EFEEEF" transform="translate(30,285)"/>
<path d="M0 0 C4.95 0 9.9 0 15 0 C15 4.95 15 9.9 15 15 C10.05 15 5.1 15 0 15 C0 10.05 0 5.1 0 0 Z " fill="#FFFFFF" transform="translate(15,285)"/>
<path d="M0 0 C4.95 0 9.9 0 15 0 C15 4.95 15 9.9 15 15 C10.05 15 5.1 15 0 15 C0 10.05 0 5.1 0 0 Z " fill="#EFEEEF" transform="translate(0,285)"/>
<path d="M0 0 C4.95 0 9.9 0 15 0 C15 4.95 15 9.9 15 15 C10.05 15 5.1 15 0 15 C0 10.05 0 5.1 0 0 Z " fill="#EFEEEF" transform="translate(345,270)"/>
<path d="M0 0 C4.95 0 9.9 0 15 0 C15 4.95 15 9.9 15 15 C10.05 15 5.1 15 0 15 C0 10.05 0 5.1 0 0 Z " fill="#FFFFFF" transform="translate(330,270)"/>
<path d="M0 0 C4.95 0 9.9 0 15 0 C15 4.95 15 9.9 15 15 C10.05 15 5.1 15 0 15 C0 10.05 0 5.1 0 0 Z " fill="#EFEEEF" transform="translate(315,270)"/>
<path d="M0 0 C4.95 0 9.9 0 15 0 C15 4.95 15 9.9 15 15 C10.05 15 5.1 15 0 15 C0 10.05 0 5.1 0 0 Z " fill="#FFFFFF" transform="translate(300,270)"/>
<path d="M0 0 C4.95 0 9.9 0 15 0 C15 4.95 15 9.9 15 15 C10.05 15 5.1 15 0 15 C0 10.05 0 5.1 0 0 Z " fill="#EFEEEF" transform="translate(285,270)"/>
<path d="M0 0 C4.95 0 9.9 0 15 0 C15 4.95 15 9.9 15 15 C10.05 15 5.1 15 0 15 C0 10.05 0 5.1 0 0 Z " fill="#FFFFFF" transform="translate(60,270)"/>
<path d="M0 0 C4.95 0 9.9 0 15 0 C15 4.95 15 9.9 15 15 C10.05 15 5.1 15 0 15 C0 10.05 0 5.1 0 0 Z " fill="#EFEEEF" transform="translate(45,270)"/>
<path d="M0 0 C4.95 0 9.9 0 15 0 C15 4.95 15 9.9 15 15 C10.05 15 5.1 15 0 15 C0 10.05 0 5.1 0 0 Z " fill="#FFFFFF" transform="translate(30,270)"/>
<path d="M0 0 C4.95 0 9.9 0 15 0 C15 4.95 15 9.9 15 15 C10.05 15 5.1 15 0 15 C0 10.05 0 5.1 0 0 Z " fill="#EFEEEF" transform="translate(15,270)"/>
<path d="M0 0 C4.95 0 9.9 0 15 0 C15 4.95 15 9.9 15 15 C10.05 15 5.1 15 0 15 C0 10.05 0 5.1 0 0 Z " fill="#FFFFFF" transform="translate(0,270)"/>
<path d="M0 0 C4.95 0 9.9 0 15 0 C15 4.95 15 9.9 15 15 C10.05 15 5.1 15 0 15 C0 10.05 0 5.1 0 0 Z " fill="#FFFFFF" transform="translate(345,255)"/>
<path d="M0 0 C4.95 0 9.9 0 15 0 C15 4.95 15 9.9 15 15 C10.05 15 5.1 15 0 15 C0 10.05 0 5.1 0 0 Z " fill="#EFEEEF" transform="translate(330,255)"/>
<path d="M0 0 C4.95 0 9.9 0 15 0 C15 4.95 15 9.9 15 15 C10.05 15 5.1 15 0 15 C0 10.05 0 5.1 0 0 Z " fill="#FFFFFF" transform="translate(315,255)"/>
<path d="M0 0 C4.95 0 9.9 0 15 0 C15 4.95 15 9.9 15 15 C10.05 15 5.1 15 0 15 C0 10.05 0 5.1 0 0 Z " fill="#EFEEEF" transform="translate(300,255)"/>
<path d="M0 0 C4.95 0 9.9 0 15 0 C15 4.95 15 9.9 15 15 C10.05 15 5.1 15 0 15 C0 10.05 0 5.1 0 0 Z " fill="#FFFFFF" transform="translate(45,255)"/>
<path d="M0 0 C4.95 0 9.9 0 15 0 C15 4.95 15 9.9 15 15 C10.05 15 5.1 15 0 15 C0 10.05 0 5.1 0 0 Z " fill="#EFEEEF" transform="translate(30,255)"/>
<path d="M0 0 C4.95 0 9.9 0 15 0 C15 4.95 15 9.9 15 15 C10.05 15 5.1 15 0 15 C0 10.05 0 5.1 0 0 Z " fill="#FFFFFF" transform="translate(15,255)"/>
<path d="M0 0 C4.95 0 9.9 0 15 0 C15 4.95 15 9.9 15 15 C10.05 15 5.1 15 0 15 C0 10.05 0 5.1 0 0 Z " fill="#EFEEEF" transform="translate(0,255)"/>
<path d="M0 0 C4.95 0 9.9 0 15 0 C15 4.95 15 9.9 15 15 C10.05 15 5.1 15 0 15 C0 10.05 0 5.1 0 0 Z " fill="#FFFFFF" transform="translate(330,240)"/>
<path d="M0 0 C4.95 0 9.9 0 15 0 C15 4.95 15 9.9 15 15 C10.05 15 5.1 15 0 15 C0 10.05 0 5.1 0 0 Z " fill="#EFEEEF" transform="translate(315,240)"/>
<path d="M0 0 C4.95 0 9.9 0 15 0 C15 4.95 15 9.9 15 15 C10.05 15 5.1 15 0 15 C0 10.05 0 5.1 0 0 Z " fill="#FFFFFF" transform="translate(30,240)"/>
<path d="M0 0 C4.95 0 9.9 0 15 0 C15 4.95 15 9.9 15 15 C10.05 15 5.1 15 0 15 C0 10.05 0 5.1 0 0 Z " fill="#EFEEEF" transform="translate(15,240)"/>
<path d="M0 0 C4.95 0 9.9 0 15 0 C15 4.95 15 9.9 15 15 C10.05 15 5.1 15 0 15 C0 10.05 0 5.1 0 0 Z " fill="#FFFFFF" transform="translate(0,240)"/>
<path d="M0 0 C4.95 0 9.9 0 15 0 C15 4.95 15 9.9 15 15 C10.05 15 5.1 15 0 15 C0 10.05 0 5.1 0 0 Z " fill="#FFFFFF" transform="translate(345,225)"/>
<path d="M0 0 C4.95 0 9.9 0 15 0 C15 4.95 15 9.9 15 15 C10.05 15 5.1 15 0 15 C0 10.05 0 5.1 0 0 Z " fill="#FFFFFF" transform="translate(15,225)"/>
<path d="M0 0 C4.95 0 9.9 0 15 0 C15 4.95 15 9.9 15 15 C10.05 15 5.1 15 0 15 C0 10.05 0 5.1 0 0 Z " fill="#EFEEEF" transform="translate(0,225)"/>
<path d="M0 0 C4.95 0 9.9 0 15 0 C15 4.95 15 9.9 15 15 C10.05 15 5.1 15 0 15 C0 10.05 0 5.1 0 0 Z " fill="#FFFFFF" transform="translate(330,210)"/>
<path d="M0 0 C4.95 0 9.9 0 15 0 C15 4.95 15 9.9 15 15 C10.05 15 5.1 15 0 15 C0 10.05 0 5.1 0 0 Z " fill="#EFEEEF" transform="translate(15,210)"/>
<path d="M0 0 C4.95 0 9.9 0 15 0 C15 4.95 15 9.9 15 15 C10.05 15 5.1 15 0 15 C0 10.05 0 5.1 0 0 Z " fill="#FFFFFF" transform="translate(0,210)"/>
<path d="M0 0 C4.95 0 9.9 0 15 0 C15 4.95 15 9.9 15 15 C10.05 15 5.1 15 0 15 C0 10.05 0 5.1 0 0 Z " fill="#FFFFFF" transform="translate(345,195)"/>
<path d="M0 0 C4.95 0 9.9 0 15 0 C15 4.95 15 9.9 15 15 C10.05 15 5.1 15 0 15 C0 10.05 0 5.1 0 0 Z " fill="#FFFFFF" transform="translate(15,195)"/>
<path d="M0 0 C4.95 0 9.9 0 15 0 C15 4.95 15 9.9 15 15 C10.05 15 5.1 15 0 15 C0 10.05 0 5.1 0 0 Z " fill="#EFEEEF" transform="translate(0,195)"/>
<path d="M0 0 C4.95 0 9.9 0 15 0 C15 4.95 15 9.9 15 15 C10.05 15 5.1 15 0 15 C0 10.05 0 5.1 0 0 Z " fill="#EFEEEF" transform="translate(345,180)"/>
<path d="M0 0 C4.95 0 9.9 0 15 0 C15 4.95 15 9.9 15 15 C10.05 15 5.1 15 0 15 C0 10.05 0 5.1 0 0 Z " fill="#FFFFFF" transform="translate(0,180)"/>
<path d="M0 0 C4.95 0 9.9 0 15 0 C15 4.95 15 9.9 15 15 C10.05 15 5.1 15 0 15 C0 10.05 0 5.1 0 0 Z " fill="#FFFFFF" transform="translate(345,165)"/>
<path d="M0 0 C4.95 0 9.9 0 15 0 C15 4.95 15 9.9 15 15 C10.05 15 5.1 15 0 15 C0 10.05 0 5.1 0 0 Z " fill="#EFEEEF" transform="translate(0,165)"/>
<path d="M0 0 C4.95 0 9.9 0 15 0 C15 4.95 15 9.9 15 15 C10.05 15 5.1 15 0 15 C0 10.05 0 5.1 0 0 Z " fill="#EFEEEF" transform="translate(345,150)"/>
<path d="M0 0 C4.95 0 9.9 0 15 0 C15 4.95 15 9.9 15 15 C10.05 15 5.1 15 0 15 C0 10.05 0 5.1 0 0 Z " fill="#FFFFFF" transform="translate(0,150)"/>
<path d="M0 0 C4.95 0 9.9 0 15 0 C15 4.95 15 9.9 15 15 C10.05 15 5.1 15 0 15 C0 10.05 0 5.1 0 0 Z " fill="#FFFFFF" transform="translate(345,135)"/>
<path d="M0 0 C4.95 0 9.9 0 15 0 C15 4.95 15 9.9 15 15 C10.05 15 5.1 15 0 15 C0 10.05 0 5.1 0 0 Z " fill="#EFEEEF" transform="translate(330,135)"/>
<path d="M0 0 C4.95 0 9.9 0 15 0 C15 4.95 15 9.9 15 15 C10.05 15 5.1 15 0 15 C0 10.05 0 5.1 0 0 Z " fill="#FFFFFF" transform="translate(15,135)"/>
<path d="M0 0 C4.95 0 9.9 0 15 0 C15 4.95 15 9.9 15 15 C10.05 15 5.1 15 0 15 C0 10.05 0 5.1 0 0 Z " fill="#EFEEEF" transform="translate(0,135)"/>
<path d="M0 0 C4.95 0 9.9 0 15 0 C15 4.95 15 9.9 15 15 C10.05 15 5.1 15 0 15 C0 10.05 0 5.1 0 0 Z " fill="#EFEEEF" transform="translate(345,120)"/>
<path d="M0 0 C4.95 0 9.9 0 15 0 C15 4.95 15 9.9 15 15 C10.05 15 5.1 15 0 15 C0 10.05 0 5.1 0 0 Z " fill="#FFFFFF" transform="translate(330,120)"/>
<path d="M0 0 C4.95 0 9.9 0 15 0 C15 4.95 15 9.9 15 15 C10.05 15 5.1 15 0 15 C0 10.05 0 5.1 0 0 Z " fill="#EFEEEF" transform="translate(15,120)"/>
<path d="M0 0 C4.95 0 9.9 0 15 0 C15 4.95 15 9.9 15 15 C10.05 15 5.1 15 0 15 C0 10.05 0 5.1 0 0 Z " fill="#FFFFFF" transform="translate(0,120)"/>
<path d="M0 0 C4.95 0 9.9 0 15 0 C15 4.95 15 9.9 15 15 C10.05 15 5.1 15 0 15 C0 10.05 0 5.1 0 0 Z " fill="#FFFFFF" transform="translate(345,105)"/>
<path d="M0 0 C4.95 0 9.9 0 15 0 C15 4.95 15 9.9 15 15 C10.05 15 5.1 15 0 15 C0 10.05 0 5.1 0 0 Z " fill="#EFEEEF" transform="translate(330,105)"/>
<path d="M0 0 C4.95 0 9.9 0 15 0 C15 4.95 15 9.9 15 15 C10.05 15 5.1 15 0 15 C0 10.05 0 5.1 0 0 Z " fill="#FFFFFF" transform="translate(315,105)"/>
<path d="M0 0 C4.95 0 9.9 0 15 0 C15 4.95 15 9.9 15 15 C10.05 15 5.1 15 0 15 C0 10.05 0 5.1 0 0 Z " fill="#EFEEEF" transform="translate(30,105)"/>
<path d="M0 0 C4.95 0 9.9 0 15 0 C15 4.95 15 9.9 15 15 C10.05 15 5.1 15 0 15 C0 10.05 0 5.1 0 0 Z " fill="#FFFFFF" transform="translate(15,105)"/>
<path d="M0 0 C4.95 0 9.9 0 15 0 C15 4.95 15 9.9 15 15 C10.05 15 5.1 15 0 15 C0 10.05 0 5.1 0 0 Z " fill="#EFEEEF" transform="translate(0,105)"/>
<path d="M0 0 C4.95 0 9.9 0 15 0 C15 4.95 15 9.9 15 15 C10.05 15 5.1 15 0 15 C0 10.05 0 5.1 0 0 Z " fill="#EFEEEF" transform="translate(345,90)"/>
<path d="M0 0 C4.95 0 9.9 0 15 0 C15 4.95 15 9.9 15 15 C10.05 15 5.1 15 0 15 C0 10.05 0 5.1 0 0 Z " fill="#FFFFFF" transform="translate(330,90)"/>
<path d="M0 0 C4.95 0 9.9 0 15 0 C15 4.95 15 9.9 15 15 C10.05 15 5.1 15 0 15 C0 10.05 0 5.1 0 0 Z " fill="#EFEEEF" transform="translate(315,90)"/>
<path d="M0 0 C4.95 0 9.9 0 15 0 C15 4.95 15 9.9 15 15 C10.05 15 5.1 15 0 15 C0 10.05 0 5.1 0 0 Z " fill="#FFFFFF" transform="translate(300,90)"/>
<path d="M0 0 C4.95 0 9.9 0 15 0 C15 4.95 15 9.9 15 15 C10.05 15 5.1 15 0 15 C0 10.05 0 5.1 0 0 Z " fill="#FFFFFF" transform="translate(30,90)"/>
<path d="M0 0 C4.95 0 9.9 0 15 0 C15 4.95 15 9.9 15 15 C10.05 15 5.1 15 0 15 C0 10.05 0 5.1 0 0 Z " fill="#EFEEEF" transform="translate(15,90)"/>
<path d="M0 0 C4.95 0 9.9 0 15 0 C15 4.95 15 9.9 15 15 C10.05 15 5.1 15 0 15 C0 10.05 0 5.1 0 0 Z " fill="#FFFFFF" transform="translate(0,90)"/>
<path d="M0 0 C4.95 0 9.9 0 15 0 C15 4.95 15 9.9 15 15 C10.05 15 5.1 15 0 15 C0 10.05 0 5.1 0 0 Z " fill="#FFFFFF" transform="translate(345,75)"/>
<path d="M0 0 C4.95 0 9.9 0 15 0 C15 4.95 15 9.9 15 15 C10.05 15 5.1 15 0 15 C0 10.05 0 5.1 0 0 Z " fill="#EFEEEF" transform="translate(330,75)"/>
<path d="M0 0 C4.95 0 9.9 0 15 0 C15 4.95 15 9.9 15 15 C10.05 15 5.1 15 0 15 C0 10.05 0 5.1 0 0 Z " fill="#FFFFFF" transform="translate(315,75)"/>
<path d="M0 0 C4.95 0 9.9 0 15 0 C15 4.95 15 9.9 15 15 C10.05 15 5.1 15 0 15 C0 10.05 0 5.1 0 0 Z " fill="#EFEEEF" transform="translate(300,75)"/>
<path d="M0 0 C4.95 0 9.9 0 15 0 C15 4.95 15 9.9 15 15 C10.05 15 5.1 15 0 15 C0 10.05 0 5.1 0 0 Z " fill="#FFFFFF" transform="translate(285,75)"/>
<path d="M0 0 C4.95 0 9.9 0 15 0 C15 4.95 15 9.9 15 15 C10.05 15 5.1 15 0 15 C0 10.05 0 5.1 0 0 Z " fill="#FFFFFF" transform="translate(45,75)"/>
<path d="M0 0 C4.95 0 9.9 0 15 0 C15 4.95 15 9.9 15 15 C10.05 15 5.1 15 0 15 C0 10.05 0 5.1 0 0 Z " fill="#EFEEEF" transform="translate(30,75)"/>
<path d="M0 0 C4.95 0 9.9 0 15 0 C15 4.95 15 9.9 15 15 C10.05 15 5.1 15 0 15 C0 10.05 0 5.1 0 0 Z " fill="#FFFFFF" transform="translate(15,75)"/>
<path d="M0 0 C4.95 0 9.9 0 15 0 C15 4.95 15 9.9 15 15 C10.05 15 5.1 15 0 15 C0 10.05 0 5.1 0 0 Z " fill="#EFEEEF" transform="translate(0,75)"/>
<path d="M0 0 C4.95 0 9.9 0 15 0 C15 4.95 15 9.9 15 15 C10.05 15 5.1 15 0 15 C0 10.05 0 5.1 0 0 Z " fill="#EFEEEF" transform="translate(345,60)"/>
<path d="M0 0 C4.95 0 9.9 0 15 0 C15 4.95 15 9.9 15 15 C10.05 15 5.1 15 0 15 C0 10.05 0 5.1 0 0 Z " fill="#FFFFFF" transform="translate(330,60)"/>
<path d="M0 0 C4.95 0 9.9 0 15 0 C15 4.95 15 9.9 15 15 C10.05 15 5.1 15 0 15 C0 10.05 0 5.1 0 0 Z " fill="#EFEEEF" transform="translate(315,60)"/>
<path d="M0 0 C4.95 0 9.9 0 15 0 C15 4.95 15 9.9 15 15 C10.05 15 5.1 15 0 15 C0 10.05 0 5.1 0 0 Z " fill="#FFFFFF" transform="translate(300,60)"/>
<path d="M0 0 C4.95 0 9.9 0 15 0 C15 4.95 15 9.9 15 15 C10.05 15 5.1 15 0 15 C0 10.05 0 5.1 0 0 Z " fill="#EFEEEF" transform="translate(285,60)"/>
<path d="M0 0 C4.95 0 9.9 0 15 0 C15 4.95 15 9.9 15 15 C10.05 15 5.1 15 0 15 C0 10.05 0 5.1 0 0 Z " fill="#FFFFFF" transform="translate(270,60)"/>
<path d="M0 0 C4.95 0 9.9 0 15 0 C15 4.95 15 9.9 15 15 C10.05 15 5.1 15 0 15 C0 10.05 0 5.1 0 0 Z " fill="#FFFFFF" transform="translate(60,60)"/>
<path d="M0 0 C4.95 0 9.9 0 15 0 C15 4.95 15 9.9 15 15 C10.05 15 5.1 15 0 15 C0 10.05 0 5.1 0 0 Z " fill="#EFEEEF" transform="translate(45,60)"/>
<path d="M0 0 C4.95 0 9.9 0 15 0 C15 4.95 15 9.9 15 15 C10.05 15 5.1 15 0 15 C0 10.05 0 5.1 0 0 Z " fill="#FFFFFF" transform="translate(30,60)"/>
<path d="M0 0 C4.95 0 9.9 0 15 0 C15 4.95 15 9.9 15 15 C10.05 15 5.1 15 0 15 C0 10.05 0 5.1 0 0 Z " fill="#EFEEEF" transform="translate(15,60)"/>
<path d="M0 0 C4.95 0 9.9 0 15 0 C15 4.95 15 9.9 15 15 C10.05 15 5.1 15 0 15 C0 10.05 0 5.1 0 0 Z " fill="#FFFFFF" transform="translate(0,60)"/>
<path d="M0 0 C4.95 0 9.9 0 15 0 C15 4.95 15 9.9 15 15 C10.05 15 5.1 15 0 15 C0 10.05 0 5.1 0 0 Z " fill="#FFFFFF" transform="translate(345,45)"/>
<path d="M0 0 C4.95 0 9.9 0 15 0 C15 4.95 15 9.9 15 15 C10.05 15 5.1 15 0 15 C0 10.05 0 5.1 0 0 Z " fill="#EFEEEF" transform="translate(330,45)"/>
<path d="M0 0 C4.95 0 9.9 0 15 0 C15 4.95 15 9.9 15 15 C10.05 15 5.1 15 0 15 C0 10.05 0 5.1 0 0 Z " fill="#FFFFFF" transform="translate(315,45)"/>
<path d="M0 0 C4.95 0 9.9 0 15 0 C15 4.95 15 9.9 15 15 C10.05 15 5.1 15 0 15 C0 10.05 0 5.1 0 0 Z " fill="#EFEEEF" transform="translate(300,45)"/>
<path d="M0 0 C4.95 0 9.9 0 15 0 C15 4.95 15 9.9 15 15 C10.05 15 5.1 15 0 15 C0 10.05 0 5.1 0 0 Z " fill="#FFFFFF" transform="translate(285,45)"/>
<path d="M0 0 C4.95 0 9.9 0 15 0 C15 4.95 15 9.9 15 15 C10.05 15 5.1 15 0 15 C0 10.05 0 5.1 0 0 Z " fill="#EFEEEF" transform="translate(270,45)"/>
<path d="M0 0 C4.95 0 9.9 0 15 0 C15 4.95 15 9.9 15 15 C10.05 15 5.1 15 0 15 C0 10.05 0 5.1 0 0 Z " fill="#FFFFFF" transform="translate(255,45)"/>
<path d="M0 0 C4.95 0 9.9 0 15 0 C15 4.95 15 9.9 15 15 C10.05 15 5.1 15 0 15 C0 10.05 0 5.1 0 0 Z " fill="#FFFFFF" transform="translate(75,45)"/>
<path d="M0 0 C4.95 0 9.9 0 15 0 C15 4.95 15 9.9 15 15 C10.05 15 5.1 15 0 15 C0 10.05 0 5.1 0 0 Z " fill="#EFEEEF" transform="translate(60,45)"/>
<path d="M0 0 C4.95 0 9.9 0 15 0 C15 4.95 15 9.9 15 15 C10.05 15 5.1 15 0 15 C0 10.05 0 5.1 0 0 Z " fill="#FFFFFF" transform="translate(45,45)"/>
<path d="M0 0 C4.95 0 9.9 0 15 0 C15 4.95 15 9.9 15 15 C10.05 15 5.1 15 0 15 C0 10.05 0 5.1 0 0 Z " fill="#EFEEEF" transform="translate(30,45)"/>
<path d="M0 0 C4.95 0 9.9 0 15 0 C15 4.95 15 9.9 15 15 C10.05 15 5.1 15 0 15 C0 10.05 0 5.1 0 0 Z " fill="#FFFFFF" transform="translate(15,45)"/>
<path d="M0 0 C4.95 0 9.9 0 15 0 C15 4.95 15 9.9 15 15 C10.05 15 5.1 15 0 15 C0 10.05 0 5.1 0 0 Z " fill="#EFEEEF" transform="translate(0,45)"/>
<path d="M0 0 C4.95 0 9.9 0 15 0 C15 4.95 15 9.9 15 15 C10.05 15 5.1 15 0 15 C0 10.05 0 5.1 0 0 Z " fill="#EFEEEF" transform="translate(345,30)"/>
<path d="M0 0 C4.95 0 9.9 0 15 0 C15 4.95 15 9.9 15 15 C10.05 15 5.1 15 0 15 C0 10.05 0 5.1 0 0 Z " fill="#FFFFFF" transform="translate(330,30)"/>
<path d="M0 0 C4.95 0 9.9 0 15 0 C15 4.95 15 9.9 15 15 C10.05 15 5.1 15 0 15 C0 10.05 0 5.1 0 0 Z " fill="#EFEEEF" transform="translate(315,30)"/>
<path d="M0 0 C4.95 0 9.9 0 15 0 C15 4.95 15 9.9 15 15 C10.05 15 5.1 15 0 15 C0 10.05 0 5.1 0 0 Z " fill="#FFFFFF" transform="translate(300,30)"/>
<path d="M0 0 C4.95 0 9.9 0 15 0 C15 4.95 15 9.9 15 15 C10.05 15 5.1 15 0 15 C0 10.05 0 5.1 0 0 Z " fill="#EFEEEF" transform="translate(285,30)"/>
<path d="M0 0 C4.95 0 9.9 0 15 0 C15 4.95 15 9.9 15 15 C10.05 15 5.1 15 0 15 C0 10.05 0 5.1 0 0 Z " fill="#FFFFFF" transform="translate(270,30)"/>
<path d="M0 0 C4.95 0 9.9 0 15 0 C15 4.95 15 9.9 15 15 C10.05 15 5.1 15 0 15 C0 10.05 0 5.1 0 0 Z " fill="#EFEEEF" transform="translate(255,30)"/>
<path d="M0 0 C4.95 0 9.9 0 15 0 C15 4.95 15 9.9 15 15 C10.05 15 5.1 15 0 15 C0 10.05 0 5.1 0 0 Z " fill="#FFFFFF" transform="translate(240,30)"/>
<path d="M0 0 C4.95 0 9.9 0 15 0 C15 4.95 15 9.9 15 15 C10.05 15 5.1 15 0 15 C0 10.05 0 5.1 0 0 Z " fill="#EFEEEF" transform="translate(105,30)"/>
<path d="M0 0 C4.95 0 9.9 0 15 0 C15 4.95 15 9.9 15 15 C10.05 15 5.1 15 0 15 C0 10.05 0 5.1 0 0 Z " fill="#FFFFFF" transform="translate(90,30)"/>
<path d="M0 0 C4.95 0 9.9 0 15 0 C15 4.95 15 9.9 15 15 C10.05 15 5.1 15 0 15 C0 10.05 0 5.1 0 0 Z " fill="#EFEEEF" transform="translate(75,30)"/>
<path d="M0 0 C4.95 0 9.9 0 15 0 C15 4.95 15 9.9 15 15 C10.05 15 5.1 15 0 15 C0 10.05 0 5.1 0 0 Z " fill="#FFFFFF" transform="translate(60,30)"/>
<path d="M0 0 C4.95 0 9.9 0 15 0 C15 4.95 15 9.9 15 15 C10.05 15 5.1 15 0 15 C0 10.05 0 5.1 0 0 Z " fill="#EFEEEF" transform="translate(45,30)"/>
<path d="M0 0 C4.95 0 9.9 0 15 0 C15 4.95 15 9.9 15 15 C10.05 15 5.1 15 0 15 C0 10.05 0 5.1 0 0 Z " fill="#FFFFFF" transform="translate(30,30)"/>
<path d="M0 0 C4.95 0 9.9 0 15 0 C15 4.95 15 9.9 15 15 C10.05 15 5.1 15 0 15 C0 10.05 0 5.1 0 0 Z " fill="#EFEEEF" transform="translate(15,30)"/>
<path d="M0 0 C4.95 0 9.9 0 15 0 C15 4.95 15 9.9 15 15 C10.05 15 5.1 15 0 15 C0 10.05 0 5.1 0 0 Z " fill="#FFFFFF" transform="translate(0,30)"/>
<path d="M0 0 C4.95 0 9.9 0 15 0 C15 4.95 15 9.9 15 15 C10.05 15 5.1 15 0 15 C0 10.05 0 5.1 0 0 Z " fill="#FFFFFF" transform="translate(345,15)"/>
<path d="M0 0 C4.95 0 9.9 0 15 0 C15 4.95 15 9.9 15 15 C10.05 15 5.1 15 0 15 C0 10.05 0 5.1 0 0 Z " fill="#EFEEEF" transform="translate(330,15)"/>
<path d="M0 0 C4.95 0 9.9 0 15 0 C15 4.95 15 9.9 15 15 C10.05 15 5.1 15 0 15 C0 10.05 0 5.1 0 0 Z " fill="#FFFFFF" transform="translate(315,15)"/>
<path d="M0 0 C4.95 0 9.9 0 15 0 C15 4.95 15 9.9 15 15 C10.05 15 5.1 15 0 15 C0 10.05 0 5.1 0 0 Z " fill="#EFEEEF" transform="translate(300,15)"/>
<path d="M0 0 C4.95 0 9.9 0 15 0 C15 4.95 15 9.9 15 15 C10.05 15 5.1 15 0 15 C0 10.05 0 5.1 0 0 Z " fill="#FFFFFF" transform="translate(285,15)"/>
<path d="M0 0 C4.95 0 9.9 0 15 0 C15 4.95 15 9.9 15 15 C10.05 15 5.1 15 0 15 C0 10.05 0 5.1 0 0 Z " fill="#EFEEEF" transform="translate(270,15)"/>
<path d="M0 0 C4.95 0 9.9 0 15 0 C15 4.95 15 9.9 15 15 C10.05 15 5.1 15 0 15 C0 10.05 0 5.1 0 0 Z " fill="#FFFFFF" transform="translate(255,15)"/>
<path d="M0 0 C4.95 0 9.9 0 15 0 C15 4.95 15 9.9 15 15 C10.05 15 5.1 15 0 15 C0 10.05 0 5.1 0 0 Z " fill="#EFEEEF" transform="translate(240,15)"/>
<path d="M0 0 C4.95 0 9.9 0 15 0 C15 4.95 15 9.9 15 15 C10.05 15 5.1 15 0 15 C0 10.05 0 5.1 0 0 Z " fill="#FFFFFF" transform="translate(225,15)"/>
<path d="M0 0 C4.95 0 9.9 0 15 0 C15 4.95 15 9.9 15 15 C10.05 15 5.1 15 0 15 C0 10.05 0 5.1 0 0 Z " fill="#EFEEEF" transform="translate(210,15)"/>
<path d="M0 0 C4.95 0 9.9 0 15 0 C15 4.95 15 9.9 15 15 C10.05 15 5.1 15 0 15 C0 10.05 0 5.1 0 0 Z " fill="#FFFFFF" transform="translate(195,15)"/>
<path d="M0 0 C4.95 0 9.9 0 15 0 C15 4.95 15 9.9 15 15 C10.05 15 5.1 15 0 15 C0 10.05 0 5.1 0 0 Z " fill="#FFFFFF" transform="translate(135,15)"/>
<path d="M0 0 C4.95 0 9.9 0 15 0 C15 4.95 15 9.9 15 15 C10.05 15 5.1 15 0 15 C0 10.05 0 5.1 0 0 Z " fill="#FFFFFF" transform="translate(105,15)"/>
<path d="M0 0 C4.95 0 9.9 0 15 0 C15 4.95 15 9.9 15 15 C10.05 15 5.1 15 0 15 C0 10.05 0 5.1 0 0 Z " fill="#EFEEEF" transform="translate(90,15)"/>
<path d="M0 0 C4.95 0 9.9 0 15 0 C15 4.95 15 9.9 15 15 C10.05 15 5.1 15 0 15 C0 10.05 0 5.1 0 0 Z " fill="#FFFFFF" transform="translate(75,15)"/>
<path d="M0 0 C4.95 0 9.9 0 15 0 C15 4.95 15 9.9 15 15 C10.05 15 5.1 15 0 15 C0 10.05 0 5.1 0 0 Z " fill="#EFEEEF" transform="translate(60,15)"/>
<path d="M0 0 C4.95 0 9.9 0 15 0 C15 4.95 15 9.9 15 15 C10.05 15 5.1 15 0 15 C0 10.05 0 5.1 0 0 Z " fill="#FFFFFF" transform="translate(45,15)"/>
<path d="M0 0 C4.95 0 9.9 0 15 0 C15 4.95 15 9.9 15 15 C10.05 15 5.1 15 0 15 C0 10.05 0 5.1 0 0 Z " fill="#EFEEEF" transform="translate(30,15)"/>
<path d="M0 0 C4.95 0 9.9 0 15 0 C15 4.95 15 9.9 15 15 C10.05 15 5.1 15 0 15 C0 10.05 0 5.1 0 0 Z " fill="#FFFFFF" transform="translate(15,15)"/>
<path d="M0 0 C4.95 0 9.9 0 15 0 C15 4.95 15 9.9 15 15 C10.05 15 5.1 15 0 15 C0 10.05 0 5.1 0 0 Z " fill="#EFEEEF" transform="translate(0,15)"/>
<path d="M0 0 C4.95 0 9.9 0 15 0 C15 4.95 15 9.9 15 15 C10.05 15 5.1 15 0 15 C0 10.05 0 5.1 0 0 Z " fill="#EFEEEF" transform="translate(345,0)"/>
<path d="M0 0 C4.95 0 9.9 0 15 0 C15 4.95 15 9.9 15 15 C10.05 15 5.1 15 0 15 C0 10.05 0 5.1 0 0 Z " fill="#FFFFFF" transform="translate(330,0)"/>
<path d="M0 0 C4.95 0 9.9 0 15 0 C15 4.95 15 9.9 15 15 C10.05 15 5.1 15 0 15 C0 10.05 0 5.1 0 0 Z " fill="#EFEEEF" transform="translate(315,0)"/>
<path d="M0 0 C4.95 0 9.9 0 15 0 C15 4.95 15 9.9 15 15 C10.05 15 5.1 15 0 15 C0 10.05 0 5.1 0 0 Z " fill="#FFFFFF" transform="translate(300,0)"/>
<path d="M0 0 C4.95 0 9.9 0 15 0 C15 4.95 15 9.9 15 15 C10.05 15 5.1 15 0 15 C0 10.05 0 5.1 0 0 Z " fill="#EFEEEF" transform="translate(285,0)"/>
<path d="M0 0 C4.95 0 9.9 0 15 0 C15 4.95 15 9.9 15 15 C10.05 15 5.1 15 0 15 C0 10.05 0 5.1 0 0 Z " fill="#FFFFFF" transform="translate(270,0)"/>
<path d="M0 0 C4.95 0 9.9 0 15 0 C15 4.95 15 9.9 15 15 C10.05 15 5.1 15 0 15 C0 10.05 0 5.1 0 0 Z " fill="#EFEEEF" transform="translate(255,0)"/>
<path d="M0 0 C4.95 0 9.9 0 15 0 C15 4.95 15 9.9 15 15 C10.05 15 5.1 15 0 15 C0 10.05 0 5.1 0 0 Z " fill="#FFFFFF" transform="translate(240,0)"/>
<path d="M0 0 C4.95 0 9.9 0 15 0 C15 4.95 15 9.9 15 15 C10.05 15 5.1 15 0 15 C0 10.05 0 5.1 0 0 Z " fill="#EFEEEF" transform="translate(225,0)"/>
<path d="M0 0 C4.95 0 9.9 0 15 0 C15 4.95 15 9.9 15 15 C10.05 15 5.1 15 0 15 C0 10.05 0 5.1 0 0 Z " fill="#FFFFFF" transform="translate(210,0)"/>
<path d="M0 0 C4.95 0 9.9 0 15 0 C15 4.95 15 9.9 15 15 C10.05 15 5.1 15 0 15 C0 10.05 0 5.1 0 0 Z " fill="#EFEEEF" transform="translate(195,0)"/>
<path d="M0 0 C4.95 0 9.9 0 15 0 C15 4.95 15 9.9 15 15 C10.05 15 5.1 15 0 15 C0 10.05 0 5.1 0 0 Z " fill="#FFFFFF" transform="translate(180,0)"/>
<path d="M0 0 C4.95 0 9.9 0 15 0 C15 4.95 15 9.9 15 15 C10.05 15 5.1 15 0 15 C0 10.05 0 5.1 0 0 Z " fill="#EFEEEF" transform="translate(165,0)"/>
<path d="M0 0 C4.95 0 9.9 0 15 0 C15 4.95 15 9.9 15 15 C10.05 15 5.1 15 0 15 C0 10.05 0 5.1 0 0 Z " fill="#FFFFFF" transform="translate(150,0)"/>
<path d="M0 0 C4.95 0 9.9 0 15 0 C15 4.95 15 9.9 15 15 C10.05 15 5.1 15 0 15 C0 10.05 0 5.1 0 0 Z " fill="#EFEEEF" transform="translate(135,0)"/>
<path d="M0 0 C4.95 0 9.9 0 15 0 C15 4.95 15 9.9 15 15 C10.05 15 5.1 15 0 15 C0 10.05 0 5.1 0 0 Z " fill="#FFFFFF" transform="translate(120,0)"/>
<path d="M0 0 C4.95 0 9.9 0 15 0 C15 4.95 15 9.9 15 15 C10.05 15 5.1 15 0 15 C0 10.05 0 5.1 0 0 Z " fill="#EFEEEF" transform="translate(105,0)"/>
<path d="M0 0 C4.95 0 9.9 0 15 0 C15 4.95 15 9.9 15 15 C10.05 15 5.1 15 0 15 C0 10.05 0 5.1 0 0 Z " fill="#FFFFFF" transform="translate(90,0)"/>
<path d="M0 0 C4.95 0 9.9 0 15 0 C15 4.95 15 9.9 15 15 C10.05 15 5.1 15 0 15 C0 10.05 0 5.1 0 0 Z " fill="#EFEEEF" transform="translate(75,0)"/>
<path d="M0 0 C4.95 0 9.9 0 15 0 C15 4.95 15 9.9 15 15 C10.05 15 5.1 15 0 15 C0 10.05 0 5.1 0 0 Z " fill="#FFFFFF" transform="translate(60,0)"/>
<path d="M0 0 C4.95 0 9.9 0 15 0 C15 4.95 15 9.9 15 15 C10.05 15 5.1 15 0 15 C0 10.05 0 5.1 0 0 Z " fill="#EFEEEF" transform="translate(45,0)"/>
<path d="M0 0 C4.95 0 9.9 0 15 0 C15 4.95 15 9.9 15 15 C10.05 15 5.1 15 0 15 C0 10.05 0 5.1 0 0 Z " fill="#FFFFFF" transform="translate(30,0)"/>
<path d="M0 0 C4.95 0 9.9 0 15 0 C15 4.95 15 9.9 15 15 C10.05 15 5.1 15 0 15 C0 10.05 0 5.1 0 0 Z " fill="#FFFFFF" transform="translate(0,0)"/>
<path d="M0 0 C4.95 0 9.9 0 15 0 C15.125 11.625 15.125 11.625 14 15 C9.38 15 4.76 15 0 15 C0 10.05 0 5.1 0 0 Z " fill="#FFFFFF" transform="translate(15,165)"/>
<path d="M0 0 C11.625 -0.25 11.625 -0.25 15 2 C15.41996896 6.35647806 15.12895366 10.61557569 15 15 C10.05 15 5.1 15 0 15 C0 10.05 0 5.1 0 0 Z " fill="#EFEEEF" transform="translate(120,315)"/>
<path d="M0 0 C4.95 0 9.9 0 15 0 C15.25 10.5 15.25 10.5 13 15 C8.71 15 4.42 15 0 15 C0 10.05 0 5.1 0 0 Z " fill="#FFFFFF" transform="translate(30,120)"/>
<path d="M0 0 C4.95 0 9.9 0 15 0 C15 4.95 15 9.9 15 15 C10.05 15 5.1 15 0 15 C0 10.05 0 5.1 0 0 Z " fill="#FFFFFF" transform="translate(165,15)"/>
<path d="M0 0 C4.95 0 9.9 0 15 0 C15 4.95 15 9.9 15 15 C10.38 15 5.76 15 1 15 C0.67 10.05 0.34 5.1 0 0 Z " fill="#EFEEEF" transform="translate(330,165)"/>
<path d="M0 0 C-2.21400284 6.64200851 -13.9260865 11.06302002 -20 14.25 C-31.30978476 19.69764502 -42.61716908 21.92778022 -55 23 C-55.85980469 23.08507812 -56.71960938 23.17015625 -57.60546875 23.2578125 C-69.12050694 23.85239278 -81.25817941 19.87976246 -91.9375 15.9375 C-92.60539551 15.69241699 -93.27329102 15.44733398 -93.96142578 15.19482422 C-97.23169803 13.92394899 -99.77472119 12.76722862 -102 10 C-97.92237368 10.6961801 -94.20670319 11.92875123 -90.3125 13.3125 C-66.59184948 21.4040684 -44.00845647 22.6688186 -20.875 11.6875 C-14.78708058 8.69474361 -9.09077699 5.38142821 -3.71484375 1.21484375 C-2 0 -2 0 0 0 Z " fill="#15154F" transform="translate(240,306)"/>
<path d="M0 0 C4.95 0 9.9 0 15 0 C15 3.3 15 6.6 15 10 C6.75 15 6.75 15 0 15 C0 10.05 0 5.1 0 0 Z " fill="#FFFFFF" transform="translate(120,30)"/>
<path d="M0 0 C4.95 0 9.9 0 15 0 C15 5.37677628 14.58686156 6.27868776 11.4375 10.3125 C10.77621094 11.19550781 10.11492188 12.07851562 9.43359375 12.98828125 C7 15 7 15 0 15 C0 10.05 0 5.1 0 0 Z " fill="#FFFFFF" transform="translate(45,105)"/>
<path d="M0 0 C4.95 0 9.9 0 15 0 C15 4.62 15 9.24 15 14 C7.575 11.03 7.575 11.03 0 8 C0 5.36 0 2.72 0 0 Z " fill="#FFFFFF" transform="translate(210,30)"/>
<path d="M0 0 C4.95 0 9.9 0 15 0 C14.67 0.99 14.34 1.98 14 3 C13.34 3 12.68 3 12 3 C11.72929688 3.57234375 11.45859375 4.1446875 11.1796875 4.734375 C9.97342857 7.05103122 8.64347003 9.1257155 7.125 11.25 C6.63257812 11.95640625 6.14015625 12.6628125 5.6328125 13.390625 C4 15 4 15 0 15 C0 10.05 0 5.1 0 0 Z " fill="#FFFFFF" transform="translate(60,90)"/>
<path d="M0 0 C4.95 0 9.9 0 15 0 C13.8481249 5.75937551 11.97542162 7.1055896 7.5 10.3125 C6.89285156 10.76689453 6.28570312 11.22128906 5.66015625 11.68945312 C1.1896734 15 1.1896734 15 0 15 C0 10.05 0 5.1 0 0 Z " fill="#FFFFFF" transform="translate(105,45)"/>
<path d="M0 0 C4.95 0 9.9 0 15 0 C14.01 0.495 14.01 0.495 13 1 C12.73316406 1.57234375 12.46632813 2.1446875 12.19140625 2.734375 C10.58437803 5.79036309 8.39309516 7.83327037 5.9375 10.25 C5.03902344 11.14203125 4.14054687 12.0340625 3.21484375 12.953125 C1 15 1 15 0 15 C0 10.05 0 5.1 0 0 Z " fill="#FFFFFF" transform="translate(75,75)"/>
<path d="M0 0 C4.95 0 9.9 0 15 0 C13.38405168 2.04119788 11.7143618 4.04072937 10 6 C9.34 6 8.68 6 8 6 C8 6.66 8 7.32 8 8 C6.34997172 9.35386936 4.6825613 10.68678142 3 12 C2.67 12.66 2.34 13.32 2 14 C1.34 14 0.68 14 0 14 C0 9.38 0 4.76 0 0 Z " fill="#FFFFFF" transform="translate(90,60)"/>
<path d="M0 0 C2.475 0.495 2.475 0.495 5 1 C6.375237 3.41337686 7.36054611 5.49297801 8.3125 8.0625 C8.57611328 8.72572266 8.83972656 9.38894531 9.11132812 10.07226562 C9.75854732 11.70796505 10.38164295 13.3531728 11 15 C7.37 15 3.74 15 0 15 C0 10.05 0 5.1 0 0 Z " fill="#FFFFFF" transform="translate(30,210)"/>
<path d="M0 0 C1.93899069 3.67304741 2.6789336 6.88321524 3 11 C3.08894531 11.89847656 3.17789062 12.79695312 3.26953125 13.72265625 C4.06581061 28.96307277 -0.4271375 51.14070625 -9 64 C-9.66 64 -10.32 64 -11 64 C-9.89119653 60.64706318 -8.76021104 57.30334336 -7.59765625 53.96875 C-1.17719401 35.42535939 0.43173207 19.62941824 0 0 Z " fill="#504045" transform="translate(327,158)"/>
<path d="M0 0 C3.93214301 1.58939426 6.33020346 4.16342502 9.25 7.1875 C12.48333697 10.49848883 15.73435933 13.73561278 19.25 16.75 C35.04065534 30.28944175 35.04065534 30.28944175 39 39 C37.0625 38.1875 37.0625 38.1875 35 37 C34.67 36.01 34.34 35.02 34 34 C33.34 34 32.68 34 32 34 C30.48259024 32.30096977 29.034872 30.53927277 27.625 28.75 C22.82787898 22.44498901 22.82787898 22.44498901 16.63671875 17.6640625 C13.07285973 15.41487147 10.58708451 12.51655675 7.8125 9.375 C4.34002446 5.15342139 4.34002446 5.15342139 0 2 C0 1.34 0 0.68 0 0 Z " fill="#4E518D" transform="translate(258,76)"/>
<path d="M0 0 C5.39900919 1.19977982 9.41989521 3.08394611 13.6875 6.625 C14.54472656 7.32882813 15.40195313 8.03265625 16.28515625 8.7578125 C17.18105469 9.49773437 18.07695312 10.23765625 19 11 C20.87251193 12.50310481 22.74740451 14.00325012 24.625 15.5 C26.08333333 16.66666667 27.54166667 17.83333333 29 19 C24.54648201 19 21.67259383 17.44839588 18 15 C18 14.34 18 13.68 18 13 C17.31550781 12.7628125 16.63101563 12.525625 15.92578125 12.28125 C12.39465972 10.73491106 9.33445017 8.69619934 6.1875 6.5 C5.59001953 6.09652344 4.99253906 5.69304688 4.37695312 5.27734375 C2.87856389 4.23960218 1.43384386 3.12524203 0 2 C0 1.34 0 0.68 0 0 Z " fill="#3C4393" transform="translate(229,56)"/>
<path d="M0 0 C4.12570649 0.70837602 7.92379663 1.94020033 11.875 3.3125 C19.49426121 5.91841138 27.19619615 8.01860867 35 10 C35 10.66 35 11.32 35 12 C27.59418446 11.15777 20.62856097 9.43243191 13.5625 7.125 C12.40935303 6.75834229 12.40935303 6.75834229 11.23291016 6.38427734 C6.78674199 4.88533916 3.51637185 3.22974909 0 0 Z " fill="#363158" transform="translate(138,316)"/>
<path d="M0 0 C4.29 0 8.58 0 13 0 C13 2.97 13 5.94 13 9 C11.2063257 7.8782037 9.4151227 6.75245517 7.625 5.625 C6.12839844 4.68527344 6.12839844 4.68527344 4.6015625 3.7265625 C2 2 2 2 0 0 Z " fill="#FFFFFF" transform="translate(227,45)"/>
<path d="M0 0 C1.98 0 3.96 0 6 0 C4.68 4.95 3.36 9.9 2 15 C1.34 15 0.68 15 0 15 C0 10.05 0 5.1 0 0 Z " fill="#FFFFFF" transform="translate(30,150)"/>
<path d="M0 0 C0.99 0 1.98 0 3 0 C3 2.97 3 5.94 3 9 C0.36 9.33 -2.28 9.66 -5 10 C-3.33333333 6.66666667 -1.66666667 3.33333333 0 0 Z " fill="#EEECED" transform="translate(312,231)"/>
<path d="M0 0 C0.66 0 1.32 0 2 0 C2.38671875 1.07378906 2.7734375 2.14757812 3.171875 3.25390625 C3.69758646 4.69022507 4.22364683 6.12641622 4.75 7.5625 C5.00265625 8.26697266 5.2553125 8.97144531 5.515625 9.69726562 C6.84219029 13.29557397 8.26213068 16.5630443 10.265625 19.83984375 C11.12414062 21.40412109 11.12414062 21.40412109 12 23 C11.67 23.99 11.34 24.98 11 26 C9.7254916 23.64776003 8.45534102 21.29333069 7.1875 18.9375 C6.65286133 17.95233398 6.65286133 17.95233398 6.10742188 16.94726562 C0 5.57289278 0 5.57289278 0 0 Z " fill="#272659" transform="translate(38,203)"/>
<path d="M0 0 C2.31 0 4.62 0 7 0 C6.02526874 1.66926454 5.04510211 3.33535642 4.0625 5 C3.24458984 6.3921875 3.24458984 6.3921875 2.41015625 7.8125 C1.94480469 8.534375 1.47945312 9.25625 1 10 C0.67 10 0.34 10 0 10 C0 6.7 0 3.4 0 0 Z " fill="#EFEEEF" transform="translate(45,120)"/>
<path d="M0 0 C5.37722282 2.50318993 9.59391956 5.03452761 14 9 C9.54648201 9 6.67259383 7.44839588 3 5 C3 4.34 3 3.68 3 3 C2.01 2.67 1.02 2.34 0 2 C0 1.34 0 0.68 0 0 Z " fill="#373D88" transform="translate(244,66)"/>
<path d="M0 0 C5.94 0.33 11.88 0.66 18 1 C13.94421765 3.02789118 12.26484474 3.24682223 7.875 3.1875 C6.82054687 3.18105469 5.76609375 3.17460937 4.6796875 3.16796875 C2 3 2 3 0 2 C0 1.34 0 0.68 0 0 Z " fill="#111045" transform="translate(173,326)"/>
<path d="M0 0 C2.97 0.495 2.97 0.495 6 1 C6.33 4.3 6.66 7.6 7 11 C4.14550355 8.14550355 2.11201404 5.4229193 0 2 C0 1.34 0 0.68 0 0 Z " fill="#FAF9FA" transform="translate(309,119)"/>
<path d="M0 0 C0.99 0 1.98 0 3 0 C3 3.63 3 7.26 3 11 C-0.918897 6.71370641 -0.918897 6.71370641 -1.3125 3.25 C-1 1 -1 1 0 0 Z " fill="#ECEAEC" transform="translate(327,150)"/>
<path d="M0 0 C-0.99 0.495 -0.99 0.495 -2 1 C-2 1.99 -2 2.98 -2 4 C-4.97 4 -7.94 4 -11 4 C-9 1 -9 1 -7.1875 0.3125 C-4.76407022 -0.03370425 -2.44491162 -0.06791421 0 0 Z " fill="#F4F2F4" transform="translate(212,326)"/>
<path d="M0 0 C2.49361571 1.20381448 4.68143083 2.45428722 7 4 C6.67 4.66 6.34 5.32 6 6 C3.03 5.505 3.03 5.505 0 5 C0 3.35 0 1.7 0 0 Z " fill="#FDFDFD" transform="translate(105,295)"/>
<path d="M0 0 C1.70884005 1.62339805 3.37446717 3.29319053 5 5 C5 5.66 5 6.32 5 7 C3.35 7 1.7 7 0 7 C0 4.69 0 2.38 0 0 Z " fill="#FFFFFF" transform="translate(45,233)"/>
<path d="M0 0 C1.98 0 3.96 0 6 0 C6 1.65 6 3.3 6 5 C2.83884224 3.63016497 2.0072908 3.0109362 0 0 Z " fill="#FFFFFF" transform="translate(249,60)"/>
<path d="M0 0 C6.75 -0.125 6.75 -0.125 9 1 C9 1.66 9 2.32 9 3 C6.03 2.67 3.06 2.34 0 2 C0 1.34 0 0.68 0 0 Z " fill="#2D2951" transform="translate(164,325)"/>
<path d="M0 0 C3.63 0 7.26 0 11 0 C11 0.33 11 0.66 11 1 C7.37 1.66 3.74 2.32 0 3 C0 2.01 0 1.02 0 0 Z " fill="#FFFFFF" transform="translate(150,30)"/>
<path d="M0 0 C0.33 0.99 0.66 1.98 1 3 C-0.4375 5.6875 -0.4375 5.6875 -2 8 C-2.66 7.34 -3.32 6.68 -4 6 C-2.68 4.02 -1.36 2.04 0 0 Z " fill="#4E3F44" transform="translate(316,222)"/>
</svg>
